<svg width="60" height="166" viewBox="0 0 60 166" fill="none" xmlns="http://www.w3.org/2000/svg">
<path opacity="0.6" d="M42.5422 161.701C34.8722 166.129 22.4362 166.129 14.7662 161.701C7.09617 157.273 7.09617 150.093 14.7662 145.665C22.4362 141.237 34.8722 141.237 42.5422 145.665C50.2122 150.093 50.2122 157.272 42.5422 161.701Z" fill="white"/>
<path d="M57.7682 72.8672H1.82617L7.02917 133.436C7.02917 136.8 9.25218 140.164 13.6982 142.731C22.5902 147.865 37.0062 147.865 45.8972 142.731C50.3432 140.164 52.5662 136.8 52.5652 133.436L57.7682 72.8672Z" fill="url(#paint0_radial_2264_2215)"/>
<path opacity="0.4" d="M57.7682 72.8672H1.82617L2.68217 82.8322C3.96417 84.4762 5.68917 86.0522 7.86717 87.4962C18.5572 94.5872 36.1952 95.9542 48.2312 90.8472L46.3702 135.147C46.2892 137.078 45.6222 138.956 44.3712 140.429C42.5592 142.562 39.0682 145.071 32.3572 146.49C37.3042 146.169 42.1052 144.922 45.8982 142.732C50.3442 140.165 52.5672 136.801 52.5662 133.437L56.7392 84.8622L57.7682 72.8672Z" fill="white"/>
<path opacity="0.4" d="M29.7972 89.0168C45.2451 89.0168 57.7682 81.7866 57.7682 72.8678C57.7682 63.9489 45.2451 56.7188 29.7972 56.7188C14.3492 56.7188 1.82617 63.9489 1.82617 72.8678C1.82617 81.7866 14.3492 89.0168 29.7972 89.0168Z" fill="white"/>
<path opacity="0.4" d="M29.7971 81.0856C43.1027 81.0856 53.8891 74.8579 53.8891 67.1756C53.8891 59.4933 43.1027 53.2656 29.7971 53.2656C16.4914 53.2656 5.70508 59.4933 5.70508 67.1756C5.70508 74.8579 16.4914 81.0856 29.7971 81.0856Z" fill="white"/>
<path d="M59.4247 72.1082L59.4277 72.1122L59.4227 72.0632C59.4207 72.0352 59.4167 72.0082 59.4147 71.9802L58.8777 66.5572L58.8547 66.6182C58.6147 62.5132 55.7877 58.4492 50.3607 55.3162C39.0037 48.7592 20.5907 48.7592 9.23468 55.3162C3.67068 58.5292 0.839685 62.7192 0.728685 66.9292L0.721682 66.9152L0.209688 71.7442C0.195688 71.8702 0.178695 71.9952 0.169695 72.1212L0.161684 72.2002L0.166689 72.1962C-0.140311 76.7972 2.74269 81.4552 8.82669 84.9672C20.4087 91.6542 39.1877 91.6542 50.7707 84.9672C56.8907 81.4332 59.7737 76.7382 59.4247 72.1082Z" fill="url(#paint1_linear_2264_2215)"/>
<path d="M29.7971 81.0856C43.1027 81.0856 53.8891 74.8579 53.8891 67.1756C53.8891 59.4933 43.1027 53.2656 29.7971 53.2656C16.4914 53.2656 5.70508 59.4933 5.70508 67.1756C5.70508 74.8579 16.4914 81.0856 29.7971 81.0856Z" fill="url(#paint2_linear_2264_2215)"/>
<path d="M28.6545 81.0856C41.9601 81.0856 52.7465 74.8579 52.7465 67.1756C52.7465 59.4933 41.9601 53.2656 28.6545 53.2656C15.3489 53.2656 4.5625 59.4933 4.5625 67.1756C4.5625 74.8579 15.3489 81.0856 28.6545 81.0856Z" fill="url(#paint3_linear_2264_2215)"/>
<path opacity="0.4" d="M15.6182 59.4116C25.0262 53.9796 40.2812 53.9796 49.6892 59.4116C49.8092 59.4806 49.9092 59.5566 50.0262 59.6266C49.1182 58.8176 48.0592 58.0486 46.8312 57.3396C37.4222 51.9076 22.1682 51.9076 12.7602 57.3396C3.47124 62.7026 3.37125 71.3486 12.4232 76.7956C6.37925 71.4066 7.43824 64.1346 15.6182 59.4116Z" fill="white"/>
<path d="M12.7613 59.7536C22.1703 54.3216 37.4243 54.3216 46.8333 59.7536C51.0053 62.1626 53.3233 65.2346 53.7953 68.3826C54.3873 64.4316 52.0693 60.3626 46.8333 57.3396C37.4243 51.9076 22.1703 51.9076 12.7613 57.3396C7.52529 60.3626 5.2073 64.4316 5.7993 68.3816C6.2713 65.2346 8.58929 62.1626 12.7613 59.7536Z" fill="url(#paint4_linear_2264_2215)"/>
<path d="M50.5398 55.4395C39.1988 48.7585 20.7188 48.5955 9.26275 55.0765C-2.19325 61.5565 -2.28625 72.2265 9.05375 78.9075C20.3938 85.5885 38.8738 85.7515 50.3308 79.2715C61.7868 72.7905 61.8798 62.1205 50.5398 55.4395ZM46.8328 77.0095C43.6898 78.8245 39.8898 80.0185 35.8778 80.6205L35.4408 79.1835C35.2638 78.6035 34.7287 78.2065 34.1227 78.2065H25.4718C24.8658 78.2065 24.3298 78.6035 24.1538 79.1835L23.7168 80.6205C19.7048 80.0185 15.9057 78.8245 12.7627 77.0095C3.35375 71.5775 3.35376 62.7705 12.7618 57.3385C22.1698 51.9065 37.4248 51.9065 46.8328 57.3385C56.2408 62.7705 56.2408 71.5775 46.8328 77.0095Z" fill="url(#paint5_radial_2264_2215)"/>
<path d="M46.8334 56.3084C37.4244 50.8764 22.1704 50.8764 12.7624 56.3084C7.83139 59.1554 5.4894 62.9294 5.7274 66.6584C5.9434 63.2724 8.28539 59.9234 12.7624 57.3384C22.1704 51.9064 37.4254 51.9064 46.8334 57.3384C51.3104 59.9234 53.6524 63.2724 53.8684 66.6594C54.1074 62.9294 51.7654 59.1554 46.8334 56.3084Z" fill="white"/>
<path d="M50.3305 78.2388C38.8745 84.7188 20.3945 84.5568 9.05352 77.8748C3.65752 74.6958 0.855528 70.6128 0.629528 66.5078C0.406528 70.9528 3.20552 75.4588 9.05352 78.9048C20.3945 85.5858 38.8745 85.7488 50.3305 79.2688C56.3345 75.8728 59.2125 71.3248 58.9635 66.8038C58.7545 70.9798 55.8795 75.1008 50.3305 78.2388Z" fill="white"/>
<path d="M32.3826 81.3667H27.2116C26.8506 81.3667 26.5586 81.0737 26.5586 80.7137V80.6227C26.5586 80.2617 26.8506 79.9688 27.2116 79.9688H32.3826C32.7436 79.9688 33.0356 80.2617 33.0356 80.6227V80.7137C33.0366 81.0737 32.7436 81.3667 32.3826 81.3667Z" fill="black"/>
<path d="M32.3826 79.9688H27.2116C26.8506 79.9688 26.5586 80.2617 26.5586 80.6227V80.7137C26.5586 80.7757 26.5776 80.8307 26.5936 80.8877C26.6706 80.6137 26.9126 80.4087 27.2116 80.4087H32.3826C32.6816 80.4087 32.9236 80.6137 33.0006 80.8877C33.0166 80.8307 33.0356 80.7757 33.0356 80.7137V80.6227C33.0366 80.2607 32.7436 79.9688 32.3826 79.9688Z" fill="url(#paint6_linear_2264_2215)"/>
<path d="M30.5889 127.213C29.9549 129.598 27.5069 131.018 25.1209 130.384C22.7359 129.75 21.3159 127.302 21.9499 124.917C22.5839 122.532 24.8339 121.856 27.2199 122.49C29.6059 123.124 31.2229 124.828 30.5889 127.213Z" fill="white"/>
<path d="M34.1061 122.503C33.2061 123.382 32.0551 123.269 31.2911 122.487C30.5271 121.706 30.4401 120.552 31.3391 119.673C32.2391 118.794 33.9491 118.36 34.7131 119.142C35.4781 119.924 35.0061 121.624 34.1061 122.503Z" fill="white"/>
<path d="M29.4331 118.763C29.2131 120.002 28.2101 120.579 27.1341 120.387C26.0581 120.196 25.3161 119.308 25.5371 118.069C25.7571 116.83 26.8971 115.483 27.9731 115.675C29.0491 115.867 29.6541 117.525 29.4331 118.763Z" fill="white"/>
<path d="M23.6711 118.195C24.1501 119.359 23.6131 120.383 22.6031 120.799C21.5921 121.215 20.4901 120.864 20.0111 119.701C19.5321 118.538 19.7711 116.789 20.7821 116.373C21.7921 115.957 23.1921 117.032 23.6711 118.195Z" fill="white"/>
<path opacity="0.5" d="M31.6288 80.6688C31.6288 80.6688 47.2688 75.4278 40.9358 57.4568C34.6028 39.4858 22.2738 34.0088 27.2408 19.6328C27.2408 19.6328 19.4568 31.2708 26.7308 47.0168C34.0048 62.7628 35.5998 60.9538 35.5148 68.4848C35.4128 77.4318 28.1858 80.6698 28.1858 80.6698L31.6288 80.6688Z" fill="white"/>
<path opacity="0.5" d="M33.0345 22.1299C33.0345 22.1299 31.4065 11.3799 41.4895 0.546875C41.4895 0.546875 32.5725 20.4639 35.4895 30.2969C35.4895 30.2969 33.1305 24.0459 33.0345 22.1299Z" fill="white"/>
<defs>
<radialGradient id="paint0_radial_2264_2215" cx="0" cy="0" r="1" gradientUnits="userSpaceOnUse" gradientTransform="translate(-2.78263 90.6722) scale(165.349 165.349)">
<stop stop-color="white"/>
<stop offset="0.1528" stop-color="#CECECE"/>
<stop offset="0.4087" stop-color="#919191"/>
<stop offset="0.9311" stop-color="#383838"/>
</radialGradient>
<linearGradient id="paint1_linear_2264_2215" x1="0.143289" y1="70.1908" x2="59.4527" y2="70.1908" gradientUnits="userSpaceOnUse">
<stop stop-color="white"/>
<stop offset="0.252" stop-color="#28212D"/>
<stop offset="0.5556" stop-color="#040404"/>
</linearGradient>
<linearGradient id="paint2_linear_2264_2215" x1="5.70488" y1="67.1756" x2="53.8892" y2="67.1756" gradientUnits="userSpaceOnUse">
<stop stop-color="white"/>
<stop offset="1" stop-color="#454545"/>
</linearGradient>
<linearGradient id="paint3_linear_2264_2215" x1="4.5621" y1="67.1756" x2="52.7464" y2="67.1756" gradientUnits="userSpaceOnUse">
<stop stop-color="#8B8B8B"/>
<stop offset="1"/>
</linearGradient>
<linearGradient id="paint4_linear_2264_2215" x1="5.7091" y1="60.8246" x2="66.4613" y2="60.8246" gradientUnits="userSpaceOnUse">
<stop offset="0.1857" stop-color="white"/>
<stop offset="0.2823" stop-color="#DBDBDB"/>
<stop offset="0.3584" stop-color="#A7A7A7"/>
<stop offset="0.4238" stop-color="#929292"/>
<stop offset="0.4823" stop-color="#959595"/>
<stop offset="0.5359" stop-color="#858585"/>
<stop offset="0.5847" stop-color="#6D6D6D"/>
<stop offset="0.6071" stop-color="#5A5A5A"/>
<stop offset="0.6179" stop-color="#494949"/>
<stop offset="0.6826" stop-color="#434343"/>
<stop offset="0.7477" stop-color="#454545"/>
<stop offset="0.8123" stop-color="#373737"/>
<stop offset="0.8762" stop-color="#2D2D2D"/>
<stop offset="0.9391" stop-color="#202020"/>
<stop offset="1"/>
</linearGradient>
<radialGradient id="paint5_radial_2264_2215" cx="0" cy="0" r="1" gradientUnits="userSpaceOnUse" gradientTransform="translate(-7.25935 53.407) scale(108.165 108.165)">
<stop stop-color="white"/>
<stop offset="0.252" stop-color="#8E8E8E"/>
<stop offset="0.7357" stop-color="#1C1B1F"/>
</radialGradient>
<linearGradient id="paint6_linear_2264_2215" x1="25.9843" y1="80.4278" x2="34.3889" y2="80.4278" gradientUnits="userSpaceOnUse">
<stop/>
<stop offset="0.1857" stop-color="white"/>
<stop offset="0.2823" stop-color="white"/>
<stop offset="0.3584" stop-color="#EBEBEB"/>
<stop offset="0.4238" stop-color="#CCCCCC"/>
<stop offset="0.4823" stop-color="#C7C7C7"/>
<stop offset="0.5359" stop-color="#C2C2C2"/>
<stop offset="0.5847" stop-color="#A3A3A3"/>
<stop offset="0.6071" stop-color="#AAAAAA"/>
<stop offset="0.6179" stop-color="#737373"/>
<stop offset="0.6826" stop-color="#696969"/>
<stop offset="0.7477" stop-color="#696969"/>
<stop offset="0.8123" stop-color="#696969"/>
<stop offset="0.8762" stop-color="#4F4F4F"/>
<stop offset="0.9391" stop-color="#2D2D2D"/>
<stop offset="1"/>
</linearGradient>
</defs>
</svg>
