<svg width="439" height="149" viewBox="0 0 439 149" fill="none" xmlns="http://www.w3.org/2000/svg">
<path d="M422.366 148.506C421.162 148.506 419.959 148.195 418.885 147.575L407.149 140.799C406.468 140.406 406.061 139.702 406.061 138.916C406.061 138.131 406.468 137.427 407.149 137.034L418.885 130.258C421.031 129.019 423.7 129.018 425.847 130.258L437.584 137.034C438.265 137.427 438.672 138.131 438.672 138.916C438.672 139.702 438.265 140.406 437.584 140.799L425.848 147.575C424.774 148.195 423.57 148.506 422.366 148.506ZM422.366 131.189C421.483 131.189 420.601 131.416 419.814 131.87L408.078 138.646C407.942 138.725 407.922 138.85 407.922 138.916C407.922 138.983 407.943 139.108 408.078 139.188L419.815 145.964H419.816C421.388 146.872 423.343 146.872 424.918 145.964L436.654 139.188C436.79 139.109 436.81 138.984 436.81 138.916C436.81 138.85 436.789 138.725 436.654 138.646L424.917 131.87C424.129 131.415 423.247 131.189 422.366 131.189Z" fill="url(#paint0_linear_2264_2214)"/>
<path d="M388.797 110.052C386.841 110.052 384.886 109.549 383.142 108.541L362.944 96.8793C361.982 96.3243 361.408 95.3312 361.408 94.2212C361.408 93.1112 361.982 92.1172 362.944 91.5632L383.141 79.9023C386.627 77.8872 390.963 77.8863 394.452 79.9023L414.651 91.5632C415.612 92.1182 416.186 93.1112 416.186 94.2202C416.186 95.3302 415.613 96.3242 414.652 96.8802L394.453 108.541C392.709 109.548 390.752 110.052 388.797 110.052ZM384.072 106.93C386.988 108.612 390.607 108.612 393.523 106.93L413.721 95.2692C414.266 94.9542 414.324 94.4312 414.324 94.2212C414.324 94.0112 414.265 93.4902 413.721 93.1742L393.522 81.5132C390.606 79.8312 386.987 79.8312 384.071 81.5132L363.874 93.1742C363.329 93.4892 363.269 94.0112 363.269 94.2212C363.269 94.4312 363.329 94.9532 363.874 95.2682L384.072 106.93Z" fill="url(#paint1_linear_2264_2214)"/>
<path d="M27.5755 128.404C25.6195 128.404 23.6645 127.901 21.9205 126.893L1.72055 115.232C0.758551 114.676 0.185547 113.682 0.185547 112.572C0.185547 111.463 0.759551 110.469 1.72055 109.915L21.9185 98.2542C25.4055 96.2382 29.7415 96.2382 33.2295 98.2542L53.4276 109.916C54.3896 110.471 54.9635 111.464 54.9635 112.574C54.9635 113.684 54.3896 114.678 53.4276 115.232L33.2306 126.893C31.4876 127.9 29.5305 128.404 27.5755 128.404ZM27.5745 98.6042C25.9405 98.6042 24.3065 99.0252 22.8485 99.8662L2.65055 111.527C2.10555 111.842 2.04655 112.364 2.04655 112.574C2.04655 112.784 2.10555 113.306 2.65155 113.622L22.8495 125.283C25.7655 126.965 29.3846 126.965 32.3006 125.283L52.4976 113.622C53.0436 113.307 53.1015 112.785 53.1015 112.575C53.1015 112.365 53.0426 111.844 52.4976 111.528L32.2996 99.8662C30.8416 99.0242 29.2075 98.6042 27.5745 98.6042Z" fill="url(#paint2_linear_2264_2214)"/>
<path d="M106.797 44.3165C104.096 44.3165 101.394 43.6215 98.9852 42.2295L70.3902 25.7195C69.1502 25.0035 68.4102 23.7225 68.4102 22.2905C68.4102 20.8585 69.1502 19.5775 70.3902 18.8615L98.9841 2.3525C103.802 -0.4295 109.792 -0.4305 114.61 2.3525L143.205 18.8625C144.445 19.5785 145.185 20.8595 145.185 22.2915C145.185 23.7235 144.445 25.0045 143.205 25.7205L114.611 42.2295C112.202 43.6215 109.499 44.3165 106.797 44.3165ZM99.9151 40.6185C104.161 43.0685 109.435 43.0685 113.682 40.6185L142.276 24.1095C142.932 23.7295 143.325 23.0505 143.325 22.2925C143.325 21.5345 142.932 20.8545 142.276 20.4755L113.681 3.96549C109.433 1.51349 104.159 1.51549 99.9142 3.96549L71.3202 20.4745C70.6642 20.8545 70.2711 21.5335 70.2711 22.2915C70.2711 23.0505 70.6642 23.7295 71.3202 24.1085L99.9151 40.6185Z" fill="url(#paint3_linear_2264_2214)"/>
<defs>
<linearGradient id="paint0_linear_2264_2214" x1="406.06" y1="138.917" x2="438.671" y2="138.917" gradientUnits="userSpaceOnUse">
<stop stop-color="white"/>
<stop offset="1"/>
</linearGradient>
<linearGradient id="paint1_linear_2264_2214" x1="361.408" y1="94.2212" x2="416.186" y2="94.2212" gradientUnits="userSpaceOnUse">
<stop stop-color="white"/>
<stop offset="1"/>
</linearGradient>
<linearGradient id="paint2_linear_2264_2214" x1="0.185547" y1="112.573" x2="54.9638" y2="112.573" gradientUnits="userSpaceOnUse">
<stop stop-color="white"/>
<stop offset="1"/>
</linearGradient>
<linearGradient id="paint3_linear_2264_2214" x1="68.4098" y1="22.292" x2="145.185" y2="22.292" gradientUnits="userSpaceOnUse">
<stop stop-color="white"/>
<stop offset="1"/>
</linearGradient>
</defs>
</svg>
