<svg width="32" height="36" viewBox="0 0 32 36" fill="none" xmlns="http://www.w3.org/2000/svg">
<path d="M3.20099 29.1705L6.40095 27.5421L9.60099 32.4279L12.8009 30.7995L14.8282 17.304L1.57031 12.5938L3.20099 29.1705Z" fill="white"/>
<path d="M32.0024 23.6599L28.1907 21.72L32.0024 15.9009L28.1907 13.9609L17.9922 17.0417L18.6409 31.9618L32.0024 23.6599Z" fill="#D5D5D5"/>
<path d="M12.7962 1.625V4.8819L6.39631 4.88246V8.13936L4.6875 8.80855L15.7154 14.6063L27.9596 8.11566L12.7962 1.625Z" fill="#BBBBBB"/>
<path d="M19.5808 18.3386V22.2185L31.9966 15.8996V19.7796L19.5808 26.0976V29.9775L31.9966 23.6587V27.5386L15.9967 35.6811L14.2969 24.1761L15.9967 16.2831L21.3596 11.6161L31.9966 8.14062V12.0205L19.5808 18.3386Z" fill="white"/>
<path d="M31.9998 8.14246L15.9999 16.2849L6.72483 13.3186L0 8.14246L3.19996 6.51408L15.5461 12.797L18.7461 11.1687L6.39999 4.88577L9.59995 3.25669L21.9461 9.5396L25.1461 7.91129L12.7999 1.62831L15.9999 0L31.9998 8.14246Z" fill="white"/>
<path d="M15.9999 16.2831V35.6811L12.7999 34.0527V19.1039L9.59995 17.4756V32.4244L6.39999 30.7953V15.8472L3.19996 14.2189V29.167L0 27.5386V8.14062L15.9999 16.2831Z" fill="#BBBBBB"/>
</svg>
