<svg width="311" height="298" viewBox="0 0 311 298" fill="none" xmlns="http://www.w3.org/2000/svg">
<path opacity="0.6" d="M168.162 282.02L23.7316 198.633C21.6266 197.418 21.8906 195.295 24.3216 193.891L117.019 140.372C119.45 138.969 123.127 138.816 125.232 140.032L269.662 223.42C271.767 224.636 271.503 226.759 269.072 228.162L176.375 281.68C173.945 283.084 170.267 283.236 168.162 282.02Z" fill="white"/>
<path d="M171.47 297.069C169.781 297.069 168.162 296.718 166.925 296.004H166.926L2.088 200.835C0.740997 200.059 0 198.938 0 197.68C0 196.235 1.00599 194.825 2.75999 193.812L115.124 127.98C118.206 126.2 122.733 126.029 125.434 127.588L290.271 222.758C291.618 223.534 292.359 224.656 292.359 225.913C292.359 227.358 291.353 228.767 289.598 229.78L177.235 295.612C175.564 296.577 173.469 297.069 171.47 297.069ZM120.911 128.391C119.223 128.391 117.429 128.798 116.06 129.587L3.69701 195.419C2.54601 196.084 1.862 196.928 1.862 197.678C1.862 198.403 2.49101 198.918 3.01801 199.223L167.856 294.392H167.857C169.961 295.609 173.829 295.431 176.298 294.003L288.662 228.171C289.813 227.506 290.497 226.663 290.497 225.912C290.497 225.188 289.868 224.673 289.341 224.368L124.504 129.198C123.564 128.657 122.272 128.391 120.911 128.391Z" fill="url(#paint0_linear_2263_2213)"/>
<path d="M308.03 83.6172L164.169 0.55816C163.18 -0.0128398 162.148 -0.130837 161.233 0.136163L161.232 0.137163C161.228 0.138163 161.223 0.14016 161.219 0.14116L158.555 1.06916L159.493 1.29116C159.117 1.73616 158.814 2.28816 158.615 2.93616L126.081 108.567C125.275 111.186 126.456 114.369 128.718 115.675L272.58 198.734C272.93 198.936 273.285 199.075 273.638 199.166L273.282 199.942L275.827 199.048L275.821 199.046C276.863 198.631 277.722 197.7 278.136 196.355L310.67 90.7242C311.473 88.1052 310.292 84.9232 308.03 83.6172Z" fill="url(#paint1_radial_2263_2213)"/>
<path d="M267.429 202.676L267.48 202.737L125.382 120.697C123.292 119.49 119.64 119.642 117.227 121.035L25.4184 174.041L22.3574 172.872L23.2174 177.167L23.2214 177.165C23.3354 177.811 23.7874 178.416 24.5994 178.885L168.011 261.684C170.101 262.891 173.753 262.739 176.166 261.346L268.209 208.205C269.345 207.549 269.998 206.736 270.16 205.932L270.165 205.938L271.043 201.758L267.429 202.676Z" fill="url(#paint2_radial_2263_2213)"/>
<path d="M168.162 257.909L23.7316 174.522C21.6266 173.307 21.8906 171.184 24.3216 169.78L117.019 116.262C119.45 114.859 123.127 114.706 125.232 115.922L269.662 199.309C271.767 200.524 271.503 202.648 269.072 204.051L176.375 257.569C173.945 258.972 170.267 259.125 168.162 257.909Z" fill="url(#paint3_radial_2263_2213)"/>
<path d="M269.071 202.924L176.374 256.442C173.943 257.846 170.266 257.998 168.161 256.783L23.7312 173.396C23.0142 172.982 22.5932 172.459 22.4182 171.898C22.1392 172.866 22.5472 173.837 23.7312 174.52L168.162 257.907C170.267 259.122 173.944 258.97 176.375 257.567L269.072 204.049C270.675 203.124 271.314 201.889 270.975 200.805C270.757 201.558 270.135 202.31 269.071 202.924Z" fill="white"/>
<g opacity="0.4">
<path d="M92.6228 160.986L87.7468 158.171C87.3548 157.945 87.4048 157.55 87.8568 157.289L93.6118 153.966C94.0638 153.705 94.7478 153.677 95.1398 153.903L100.016 156.718C100.408 156.944 100.358 157.339 99.9058 157.6L94.1498 160.923C93.6988 161.184 93.0148 161.212 92.6228 160.986Z" fill="white"/>
<path d="M100.152 165.337L95.2761 162.522C94.8841 162.296 94.9341 161.901 95.3861 161.64L101.142 158.317C101.594 158.056 102.278 158.028 102.669 158.254L107.545 161.069C107.937 161.295 107.887 161.69 107.435 161.951L101.68 165.274C101.228 165.534 100.544 165.563 100.152 165.337Z" fill="white"/>
<path d="M107.683 169.681L102.807 166.866C102.416 166.64 102.465 166.245 102.917 165.984L108.673 162.661C109.125 162.4 109.809 162.372 110.2 162.598L115.076 165.413C115.467 165.639 115.418 166.034 114.966 166.295L109.21 169.618C108.758 169.879 108.074 169.907 107.683 169.681Z" fill="white"/>
<path d="M118.099 166.092L113.223 163.277C112.831 163.051 112.881 162.656 113.333 162.395L118.164 159.606C118.616 159.345 119.3 159.317 119.691 159.543L124.567 162.358C124.958 162.584 124.909 162.979 124.457 163.24L119.626 166.029C119.174 166.29 118.49 166.318 118.099 166.092Z" fill="white"/>
<path d="M125.629 170.436L120.753 167.621C120.361 167.395 120.411 167 120.863 166.739L125.695 163.95C126.147 163.689 126.831 163.661 127.222 163.887L132.098 166.702C132.49 166.928 132.44 167.323 131.988 167.584L127.156 170.373C126.704 170.633 126.02 170.662 125.629 170.436Z" fill="white"/>
<path d="M133.158 174.788L128.282 171.973C127.89 171.747 127.94 171.352 128.392 171.091L133.224 168.302C133.676 168.041 134.36 168.013 134.751 168.239L139.627 171.054C140.019 171.28 139.969 171.675 139.517 171.936L134.685 174.725C134.234 174.986 133.55 175.014 133.158 174.788Z" fill="white"/>
<path d="M140.689 179.131L135.813 176.316C135.421 176.09 135.471 175.695 135.923 175.434L140.754 172.645C141.206 172.384 141.89 172.356 142.281 172.582L147.157 175.397C147.549 175.623 147.499 176.018 147.047 176.279L142.216 179.068C141.765 179.328 141.081 179.357 140.689 179.131Z" fill="white"/>
<path d="M148.22 183.483L143.344 180.668C142.952 180.442 143.002 180.047 143.454 179.786L148.286 176.997C148.738 176.736 149.422 176.708 149.813 176.934L154.689 179.749C155.08 179.975 155.031 180.37 154.579 180.631L149.748 183.42C149.295 183.681 148.611 183.709 148.22 183.483Z" fill="white"/>
<path d="M155.75 187.827L150.874 185.012C150.482 184.786 150.532 184.391 150.984 184.13L155.815 181.341C156.267 181.08 156.951 181.052 157.342 181.278L162.218 184.093C162.609 184.319 162.56 184.714 162.108 184.975L157.277 187.764C156.825 188.025 156.141 188.053 155.75 187.827Z" fill="white"/>
<path d="M163.279 192.178L158.403 189.363C158.011 189.137 158.061 188.742 158.513 188.481L163.344 185.692C163.796 185.431 164.48 185.403 164.871 185.629L169.747 188.444C170.138 188.67 170.089 189.065 169.637 189.326L164.805 192.115C164.355 192.375 163.671 192.404 163.279 192.178Z" fill="white"/>
<path d="M170.81 196.522L165.934 193.707C165.543 193.481 165.592 193.086 166.044 192.825L170.876 190.036C171.328 189.775 172.012 189.747 172.403 189.973L177.279 192.788C177.671 193.014 177.621 193.409 177.169 193.67L172.337 196.459C171.886 196.72 171.202 196.748 170.81 196.522Z" fill="white"/>
<path d="M178.341 200.874L173.465 198.059C173.074 197.833 173.123 197.438 173.575 197.177L178.407 194.388C178.859 194.127 179.543 194.099 179.934 194.325L184.81 197.14C185.202 197.366 185.152 197.761 184.7 198.022L179.869 200.811C179.416 201.072 178.732 201.1 178.341 200.874Z" fill="white"/>
<path d="M185.871 205.217L180.995 202.402C180.603 202.176 180.653 201.781 181.105 201.52L185.936 198.731C186.388 198.47 187.072 198.442 187.463 198.668L192.339 201.483C192.73 201.709 192.681 202.104 192.229 202.365L187.397 205.155C186.946 205.415 186.262 205.443 185.871 205.217Z" fill="white"/>
<path d="M129.193 164.03L124.317 161.215C123.925 160.989 123.975 160.594 124.427 160.333L129.258 157.544C129.71 157.283 130.394 157.255 130.786 157.481L135.662 160.296C136.053 160.522 136.004 160.917 135.552 161.178L130.721 163.967C130.268 164.227 129.584 164.256 129.193 164.03Z" fill="white"/>
<path d="M121.55 159.617L116.674 156.802C116.283 156.576 116.332 156.181 116.784 155.92L121.615 153.13C122.067 152.869 122.751 152.841 123.143 153.067L128.019 155.882C128.411 156.108 128.361 156.503 127.909 156.764L123.078 159.553C122.626 159.815 121.942 159.843 121.55 159.617Z" fill="white"/>
<path d="M113.895 155.2L103.393 149.137C103.002 148.911 103.051 148.516 103.503 148.255L108.334 145.466C108.786 145.205 109.47 145.177 109.861 145.403L120.363 151.466C120.755 151.692 120.705 152.087 120.253 152.348L115.422 155.137C114.971 155.398 114.287 155.426 113.895 155.2Z" fill="white"/>
<path d="M119.246 149.824L110.723 144.903C110.331 144.677 110.381 144.282 110.833 144.021L115.664 141.231C116.116 140.97 116.8 140.942 117.191 141.168L125.714 146.089C126.105 146.315 126.056 146.71 125.604 146.971L120.773 149.76C120.321 150.022 119.637 150.051 119.246 149.824Z" fill="white"/>
<path d="M136.724 168.382L131.848 165.567C131.456 165.341 131.506 164.946 131.958 164.685L136.789 161.895C137.241 161.634 137.925 161.606 138.316 161.832L143.192 164.647C143.583 164.873 143.534 165.268 143.082 165.529L138.251 168.318C137.8 168.58 137.116 168.608 136.724 168.382Z" fill="white"/>
<path d="M144.253 172.726L139.377 169.911C138.986 169.685 139.035 169.29 139.487 169.029L144.318 166.239C144.77 165.978 145.454 165.95 145.845 166.176L150.721 168.991C151.113 169.217 151.063 169.612 150.611 169.873L145.779 172.662C145.329 172.924 144.645 172.952 144.253 172.726Z" fill="white"/>
<path d="M151.785 177.077L146.909 174.262C146.517 174.036 146.567 173.641 147.019 173.38L151.851 170.591C152.303 170.33 152.987 170.302 153.378 170.528L158.254 173.343C158.646 173.569 158.596 173.964 158.144 174.225L153.312 177.014C152.86 177.275 152.176 177.303 151.785 177.077Z" fill="white"/>
<path d="M159.314 181.42L154.438 178.605C154.046 178.379 154.096 177.984 154.548 177.723L159.38 174.934C159.832 174.673 160.516 174.645 160.907 174.871L165.783 177.686C166.174 177.912 166.125 178.307 165.673 178.568L160.842 181.357C160.389 181.618 159.705 181.646 159.314 181.42Z" fill="white"/>
<path d="M166.845 185.772L161.969 182.957C161.578 182.731 161.627 182.336 162.079 182.075L166.91 179.286C167.362 179.025 168.046 178.997 168.437 179.223L173.313 182.038C173.704 182.264 173.655 182.659 173.203 182.92L168.371 185.709C167.921 185.969 167.237 185.998 166.845 185.772Z" fill="white"/>
<path d="M174.375 190.116L169.499 187.301C169.107 187.075 169.157 186.68 169.609 186.419L174.441 183.63C174.893 183.369 175.577 183.341 175.968 183.567L180.844 186.382C181.236 186.608 181.186 187.003 180.734 187.264L175.902 190.053C175.451 190.314 174.767 190.342 174.375 190.116Z" fill="white"/>
<path d="M181.906 194.467L177.03 191.652C176.638 191.426 176.688 191.031 177.14 190.77L181.972 187.981C182.424 187.72 183.108 187.692 183.499 187.918L188.375 190.733C188.767 190.959 188.717 191.354 188.265 191.615L183.434 194.404C182.981 194.664 182.297 194.693 181.906 194.467Z" fill="white"/>
<path d="M189.435 198.811L184.559 195.996C184.167 195.77 184.217 195.375 184.669 195.114L189.501 192.325C189.953 192.064 190.637 192.036 191.028 192.262L195.904 195.077C196.296 195.303 196.246 195.698 195.794 195.959L190.963 198.748C190.511 199.009 189.827 199.038 189.435 198.811Z" fill="white"/>
<path d="M196.966 203.163L192.09 200.348C191.699 200.122 191.748 199.727 192.2 199.466L197.031 196.677C197.483 196.416 198.167 196.388 198.559 196.614L203.435 199.429C203.826 199.655 203.777 200.05 203.325 200.311L198.494 203.1C198.042 203.361 197.358 203.389 196.966 203.163Z" fill="white"/>
<path d="M210.352 210.89L199.713 204.747C199.322 204.521 199.371 204.126 199.823 203.865L204.655 201.075C205.107 200.814 205.791 200.786 206.182 201.012L216.821 207.155C217.213 207.381 217.163 207.776 216.711 208.037L211.88 210.826C211.428 211.088 210.744 211.116 210.352 210.89Z" fill="white"/>
<path d="M225.014 202.423L216.034 197.238C215.642 197.012 215.692 196.617 216.144 196.356L220.976 193.567C221.428 193.306 222.112 193.278 222.503 193.504L231.483 198.689C231.874 198.915 231.825 199.31 231.373 199.571L226.541 202.36C226.089 202.621 225.405 202.649 225.014 202.423Z" fill="white"/>
<path d="M149.91 167.53L145.034 164.715C144.642 164.489 144.692 164.094 145.144 163.833L149.975 161.044C150.427 160.783 151.111 160.755 151.503 160.981L156.379 163.796C156.771 164.022 156.721 164.417 156.269 164.678L151.438 167.467C150.986 167.727 150.302 167.756 149.91 167.53Z" fill="white"/>
<path d="M142.193 163.077L137.317 160.262C136.925 160.036 136.975 159.641 137.427 159.38L142.259 156.591C142.711 156.33 143.395 156.302 143.786 156.528L148.662 159.343C149.054 159.569 149.004 159.964 148.552 160.225L143.72 163.014C143.268 163.274 142.584 163.303 142.193 163.077Z" fill="white"/>
<path d="M134.476 158.616L129.6 155.801C129.208 155.575 129.258 155.18 129.71 154.919L134.542 152.13C134.994 151.869 135.678 151.841 136.069 152.067L140.945 154.882C141.337 155.108 141.287 155.503 140.835 155.764L136.004 158.553C135.551 158.814 134.868 158.842 134.476 158.616Z" fill="white"/>
<path d="M126.759 154.163L121.883 151.348C121.492 151.122 121.541 150.727 121.993 150.466L126.824 147.677C127.276 147.416 127.96 147.388 128.351 147.614L133.227 150.429C133.618 150.655 133.569 151.05 133.117 151.311L128.285 154.1C127.834 154.361 127.15 154.389 126.759 154.163Z" fill="white"/>
<path d="M157.441 171.875L152.565 169.06C152.173 168.834 152.223 168.439 152.675 168.178L157.507 165.388C157.959 165.127 158.643 165.099 159.034 165.325L163.91 168.14C164.302 168.366 164.252 168.761 163.8 169.022L158.968 171.812C158.516 172.073 157.832 172.101 157.441 171.875Z" fill="white"/>
<path d="M164.972 176.225L160.096 173.41C159.704 173.184 159.754 172.789 160.206 172.528L165.037 169.739C165.489 169.478 166.173 169.45 166.564 169.676L171.44 172.491C171.832 172.717 171.782 173.112 171.33 173.373L166.498 176.163C166.047 176.423 165.363 176.451 164.972 176.225Z" fill="white"/>
<path d="M172.502 180.57L167.626 177.755C167.234 177.529 167.284 177.134 167.736 176.873L172.567 174.083C173.019 173.822 173.703 173.794 174.095 174.02L178.971 176.835C179.362 177.061 179.313 177.456 178.861 177.717L174.03 180.506C173.577 180.768 172.894 180.796 172.502 180.57Z" fill="white"/>
<path d="M180.031 184.921L175.155 182.106C174.763 181.88 174.813 181.485 175.265 181.224L180.096 178.434C180.548 178.173 181.232 178.145 181.623 178.371L186.499 181.186C186.891 181.412 186.841 181.807 186.389 182.068L181.558 184.858C181.107 185.119 180.423 185.147 180.031 184.921Z" fill="white"/>
<path d="M187.562 189.272L182.686 186.457C182.294 186.231 182.344 185.836 182.796 185.575L187.627 182.786C188.079 182.525 188.763 182.497 189.154 182.723L194.03 185.538C194.422 185.764 194.372 186.159 193.92 186.42L189.088 189.21C188.637 189.469 187.953 189.498 187.562 189.272Z" fill="white"/>
<path d="M195.093 193.617L190.217 190.802C189.825 190.576 189.875 190.181 190.327 189.92L195.159 187.13C195.611 186.869 196.295 186.841 196.686 187.067L201.562 189.882C201.954 190.108 201.904 190.503 201.452 190.764L196.62 193.553C196.168 193.815 195.484 193.843 195.093 193.617Z" fill="white"/>
<path d="M202.622 197.96L197.746 195.145C197.355 194.919 197.404 194.524 197.856 194.263L202.688 191.474C203.14 191.213 203.824 191.185 204.215 191.411L209.091 194.226C209.482 194.452 209.433 194.847 208.981 195.108L204.15 197.897C203.698 198.158 203.014 198.186 202.622 197.96Z" fill="white"/>
<path d="M210.154 202.311L205.278 199.496C204.887 199.27 204.936 198.875 205.388 198.614L210.22 195.825C210.672 195.564 211.356 195.536 211.747 195.762L216.623 198.577C217.014 198.803 216.965 199.198 216.513 199.459L211.681 202.248C211.229 202.509 210.545 202.537 210.154 202.311Z" fill="white"/>
<path d="M217.683 206.655L212.807 203.84C212.415 203.614 212.465 203.219 212.917 202.958L217.748 200.169C218.2 199.908 218.884 199.88 219.275 200.106L224.151 202.921C224.543 203.147 224.494 203.542 224.041 203.803L219.209 206.593C218.758 206.853 218.074 206.881 217.683 206.655Z" fill="white"/>
<path d="M145.945 156.78L141.069 153.965C140.677 153.739 140.727 153.344 141.179 153.083L146.01 150.294C146.462 150.033 147.146 150.005 147.538 150.231L152.414 153.046C152.806 153.272 152.756 153.667 152.304 153.928L147.473 156.717C147.02 156.978 146.337 157.006 145.945 156.78Z" fill="white"/>
<path d="M138.452 152.453L133.576 149.638C133.185 149.412 133.234 149.017 133.686 148.756L138.517 145.966C138.969 145.705 139.653 145.677 140.045 145.903L144.921 148.718C145.313 148.944 145.263 149.339 144.811 149.6L139.98 152.389C139.528 152.651 138.844 152.679 138.452 152.453Z" fill="white"/>
<path d="M130.96 148.125L126.084 145.31C125.693 145.084 125.742 144.689 126.194 144.428L131.025 141.638C131.477 141.377 132.161 141.349 132.552 141.575L137.428 144.39C137.819 144.616 137.77 145.011 137.318 145.272L132.487 148.062C132.035 148.323 131.351 148.351 130.96 148.125Z" fill="white"/>
<path d="M123.468 143.795L118.592 140.98C118.201 140.754 118.25 140.359 118.702 140.098L123.533 137.309C123.985 137.048 124.669 137.02 125.06 137.246L129.936 140.061C130.328 140.287 130.279 140.682 129.826 140.943L124.995 143.732C124.543 143.993 123.859 144.021 123.468 143.795Z" fill="white"/>
<path d="M131.174 139.35L126.298 136.535C125.906 136.309 125.956 135.914 126.408 135.653L128.005 134.731C128.457 134.47 129.141 134.442 129.532 134.668L134.408 137.483C134.8 137.709 134.75 138.104 134.298 138.365L132.701 139.287C132.249 139.547 131.565 139.576 131.174 139.35Z" fill="white"/>
<path d="M140.95 144.999L136.074 142.184C135.683 141.958 135.732 141.563 136.184 141.302L137.781 140.38C138.233 140.119 138.917 140.091 139.308 140.317L144.184 143.132C144.576 143.358 144.526 143.753 144.074 144.014L142.477 144.936C142.025 145.197 141.341 145.225 140.95 144.999Z" fill="white"/>
<path d="M148.412 149.303L143.536 146.488C143.144 146.262 143.194 145.867 143.646 145.606L145.243 144.684C145.695 144.423 146.379 144.395 146.771 144.621L151.647 147.436C152.038 147.662 151.989 148.057 151.537 148.318L149.94 149.24C149.488 149.501 148.804 149.529 148.412 149.303Z" fill="white"/>
<path d="M155.874 153.608L150.998 150.793C150.607 150.567 150.656 150.172 151.108 149.911L152.705 148.989C153.157 148.728 153.841 148.7 154.232 148.926L159.108 151.741C159.5 151.967 159.45 152.362 158.998 152.623L157.401 153.545C156.949 153.806 156.265 153.834 155.874 153.608Z" fill="white"/>
<path d="M163.335 157.921L158.459 155.106C158.068 154.88 158.117 154.485 158.569 154.224L160.166 153.302C160.618 153.041 161.302 153.013 161.693 153.239L166.569 156.054C166.961 156.28 166.911 156.675 166.459 156.936L164.862 157.858C164.411 158.119 163.727 158.147 163.335 157.921Z" fill="white"/>
<path d="M204.992 181.968L200.116 179.153C199.725 178.927 199.773 178.532 200.225 178.271L201.823 177.349C202.275 177.088 202.959 177.06 203.35 177.286L208.225 180.101C208.617 180.327 208.568 180.722 208.116 180.983L206.518 181.905C206.067 182.165 205.384 182.194 204.992 181.968Z" fill="white"/>
<path d="M212.453 186.28L207.577 183.465C207.185 183.239 207.235 182.844 207.687 182.583L209.284 181.661C209.736 181.4 210.42 181.372 210.812 181.598L215.688 184.413C216.08 184.639 216.03 185.034 215.578 185.295L213.981 186.217C213.528 186.478 212.844 186.507 212.453 186.28Z" fill="white"/>
<path d="M219.916 190.585L215.04 187.77C214.648 187.544 214.698 187.149 215.15 186.888L216.747 185.966C217.199 185.705 217.883 185.677 218.274 185.903L223.15 188.718C223.541 188.944 223.492 189.339 223.04 189.6L221.443 190.522C220.991 190.783 220.307 190.812 219.916 190.585Z" fill="white"/>
<path d="M227.377 194.897L222.501 192.082C222.109 191.856 222.159 191.461 222.611 191.2L224.208 190.278C224.66 190.017 225.344 189.989 225.735 190.215L230.611 193.03C231.003 193.256 230.953 193.651 230.501 193.912L228.904 194.834C228.452 195.095 227.769 195.123 227.377 194.897Z" fill="white"/>
<path d="M153.476 161.124L148.6 158.309C148.209 158.083 148.258 157.688 148.71 157.427L153.541 154.638C153.993 154.377 154.677 154.349 155.068 154.575L159.944 157.39C160.335 157.616 160.286 158.011 159.834 158.272L155.003 161.061C154.552 161.321 153.868 161.35 153.476 161.124Z" fill="white"/>
<path d="M161.008 165.475L156.132 162.66C155.74 162.434 155.79 162.039 156.242 161.778L161.073 158.989C161.525 158.728 162.209 158.7 162.6 158.926L167.476 161.741C167.868 161.967 167.818 162.362 167.366 162.623L162.535 165.412C162.083 165.673 161.399 165.701 161.008 165.475Z" fill="white"/>
<path d="M168.537 169.819L163.661 167.004C163.269 166.778 163.319 166.383 163.771 166.122L168.602 163.333C169.054 163.072 169.738 163.044 170.129 163.27L175.005 166.085C175.397 166.311 175.347 166.706 174.895 166.967L170.063 169.757C169.612 170.017 168.929 170.045 168.537 169.819Z" fill="white"/>
<path d="M176.066 174.17L171.19 171.355C170.798 171.129 170.848 170.734 171.3 170.473L176.132 167.684C176.584 167.423 177.268 167.395 177.659 167.621L182.535 170.436C182.927 170.662 182.877 171.057 182.425 171.318L177.594 174.107C177.142 174.367 176.458 174.396 176.066 174.17Z" fill="white"/>
<path d="M183.597 178.514L178.721 175.699C178.33 175.473 178.379 175.078 178.831 174.817L183.663 172.028C184.115 171.767 184.799 171.739 185.19 171.965L190.066 174.78C190.457 175.006 190.408 175.401 189.956 175.662L185.125 178.452C184.672 178.712 183.988 178.74 183.597 178.514Z" fill="white"/>
<path d="M191.129 182.866L186.253 180.051C185.861 179.825 185.911 179.43 186.363 179.169L191.195 176.38C191.647 176.119 192.331 176.091 192.722 176.317L197.598 179.132C197.989 179.358 197.94 179.753 197.488 180.014L192.656 182.804C192.204 183.063 191.52 183.092 191.129 182.866Z" fill="white"/>
<path d="M198.658 187.21L193.782 184.395C193.39 184.169 193.44 183.774 193.892 183.513L198.724 180.724C199.176 180.463 199.86 180.435 200.251 180.661L205.127 183.476C205.519 183.702 205.469 184.097 205.017 184.358L200.185 187.147C199.733 187.408 199.05 187.436 198.658 187.21Z" fill="white"/>
<path d="M206.187 191.561L201.311 188.746C200.919 188.52 200.969 188.125 201.421 187.864L206.252 185.075C206.704 184.814 207.388 184.786 207.779 185.012L212.655 187.827C213.047 188.053 212.997 188.448 212.545 188.709L207.714 191.499C207.263 191.759 206.579 191.787 206.187 191.561Z" fill="white"/>
<path d="M213.718 195.905L208.842 193.09C208.451 192.864 208.5 192.469 208.952 192.208L213.784 189.419C214.236 189.158 214.92 189.13 215.311 189.356L220.187 192.171C220.579 192.397 220.529 192.792 220.077 193.053L215.246 195.842C214.793 196.103 214.109 196.132 213.718 195.905Z" fill="white"/>
<path d="M110.426 161.662L96.0647 153.371C95.6737 153.145 95.7227 152.75 96.1747 152.489L101.006 149.7C101.458 149.439 102.142 149.411 102.534 149.637L116.895 157.928C117.286 158.154 117.237 158.549 116.785 158.81L111.953 161.599C111.501 161.86 110.817 161.889 110.426 161.662Z" fill="white"/>
<path d="M202.935 215.076L188.574 206.785C188.183 206.559 188.232 206.164 188.684 205.903L193.516 203.114C193.968 202.853 194.652 202.825 195.043 203.051L209.404 211.342C209.796 211.568 209.746 211.963 209.294 212.224L204.462 215.013C204.01 215.273 203.326 215.302 202.935 215.076Z" fill="white"/>
<path d="M172.82 207.29L167.944 204.475C167.552 204.249 167.602 203.854 168.054 203.593L173.81 200.27C174.262 200.009 174.946 199.981 175.337 200.207L180.213 203.022C180.604 203.248 180.555 203.643 180.103 203.904L174.347 207.227C173.896 207.488 173.212 207.517 172.82 207.29Z" fill="white"/>
<path d="M118.136 175.72L110.338 171.218C109.947 170.992 109.996 170.597 110.448 170.336L116.204 167.013C116.656 166.752 117.34 166.724 117.731 166.95L125.529 171.452C125.921 171.678 125.871 172.073 125.419 172.334L119.663 175.657C119.212 175.918 118.528 175.946 118.136 175.72Z" fill="white"/>
<path d="M165.566 203.102L157.768 198.6C157.376 198.374 157.426 197.979 157.878 197.718L163.634 194.395C164.086 194.134 164.77 194.106 165.161 194.332L172.959 198.834C173.35 199.06 173.301 199.455 172.849 199.716L167.094 203.039C166.641 203.299 165.957 203.328 165.566 203.102Z" fill="white"/>
<path d="M129.001 181.993L121.203 177.491C120.812 177.265 120.861 176.87 121.313 176.609L127.069 173.286C127.521 173.025 128.205 172.997 128.596 173.223L136.394 177.725C136.786 177.951 136.736 178.346 136.284 178.607L130.528 181.93C130.076 182.19 129.392 182.219 129.001 181.993Z" fill="white"/>
<path d="M128.647 173.25L162.552 192.825C162.973 193.068 162.973 193.462 162.552 193.705L156.683 197.093C156.262 197.336 155.58 197.336 155.159 197.093L121.254 177.518L128.647 173.25Z" fill="white"/>
<path d="M193.866 215.172L199.298 218.308C199.619 218.493 199.579 218.817 199.208 219.031L196.853 220.39C196.483 220.604 195.922 220.627 195.601 220.442L190.17 217.306C189.849 217.121 189.889 216.797 190.26 216.583L192.614 215.224C192.985 215.01 193.545 214.987 193.866 215.172Z" fill="white"/>
<path d="M186.273 210.789L191.705 213.925C192.026 214.11 191.986 214.434 191.615 214.648L189.261 216.007C188.89 216.221 188.33 216.244 188.009 216.059L182.578 212.923C182.257 212.738 182.297 212.414 182.668 212.2L185.022 210.841C185.392 210.628 185.952 210.604 186.273 210.789Z" fill="white"/>
<path d="M178.743 206.437L184.175 209.573C184.496 209.758 184.456 210.082 184.085 210.296L181.731 211.655C181.36 211.869 180.8 211.892 180.479 211.707L175.047 208.571C174.726 208.386 174.766 208.062 175.137 207.848L177.491 206.489C177.862 206.275 178.422 206.252 178.743 206.437Z" fill="white"/>
<path d="M190.432 208.391L195.863 211.527C196.184 211.712 196.144 212.036 195.773 212.25L193.418 213.609C193.048 213.823 192.487 213.846 192.166 213.661L186.734 210.525C186.413 210.34 186.453 210.016 186.824 209.802L189.179 208.443C189.55 208.229 190.111 208.205 190.432 208.391Z" fill="white"/>
</g>
<g opacity="0.4">
<path d="M92.6228 160.986L87.7468 158.171C87.3548 157.945 87.4048 157.55 87.8568 157.289L93.6118 153.966C94.0638 153.705 94.7478 153.677 95.1398 153.903L100.016 156.718C100.408 156.944 100.358 157.339 99.9058 157.6L94.1498 160.923C93.6988 161.184 93.0148 161.212 92.6228 160.986Z" fill="white"/>
<path d="M100.152 165.337L95.2761 162.522C94.8841 162.296 94.9341 161.901 95.3861 161.64L101.142 158.317C101.594 158.056 102.278 158.028 102.669 158.254L107.545 161.069C107.937 161.295 107.887 161.69 107.435 161.951L101.68 165.274C101.228 165.534 100.544 165.563 100.152 165.337Z" fill="white"/>
<path d="M107.683 169.681L102.807 166.866C102.416 166.64 102.465 166.245 102.917 165.984L108.673 162.661C109.125 162.4 109.809 162.372 110.2 162.598L115.076 165.413C115.467 165.639 115.418 166.034 114.966 166.295L109.21 169.618C108.758 169.879 108.074 169.907 107.683 169.681Z" fill="white"/>
<path d="M118.099 166.092L113.223 163.277C112.831 163.051 112.881 162.656 113.333 162.395L118.164 159.606C118.616 159.345 119.3 159.317 119.691 159.543L124.567 162.358C124.958 162.584 124.909 162.979 124.457 163.24L119.626 166.029C119.174 166.29 118.49 166.318 118.099 166.092Z" fill="white"/>
<path d="M125.629 170.436L120.753 167.621C120.361 167.395 120.411 167 120.863 166.739L125.695 163.95C126.147 163.689 126.831 163.661 127.222 163.887L132.098 166.702C132.49 166.928 132.44 167.323 131.988 167.584L127.156 170.373C126.704 170.633 126.02 170.662 125.629 170.436Z" fill="white"/>
<path d="M133.158 174.788L128.282 171.973C127.89 171.747 127.94 171.352 128.392 171.091L133.224 168.302C133.676 168.041 134.36 168.013 134.751 168.239L139.627 171.054C140.019 171.28 139.969 171.675 139.517 171.936L134.685 174.725C134.234 174.986 133.55 175.014 133.158 174.788Z" fill="white"/>
<path d="M140.689 179.131L135.813 176.316C135.421 176.09 135.471 175.695 135.923 175.434L140.754 172.645C141.206 172.384 141.89 172.356 142.281 172.582L147.157 175.397C147.549 175.623 147.499 176.018 147.047 176.279L142.216 179.068C141.765 179.328 141.081 179.357 140.689 179.131Z" fill="white"/>
<path d="M148.22 183.483L143.344 180.668C142.952 180.442 143.002 180.047 143.454 179.786L148.286 176.997C148.738 176.736 149.422 176.708 149.813 176.934L154.689 179.749C155.08 179.975 155.031 180.37 154.579 180.631L149.748 183.42C149.295 183.681 148.611 183.709 148.22 183.483Z" fill="white"/>
<path d="M155.75 187.827L150.874 185.012C150.482 184.786 150.532 184.391 150.984 184.13L155.815 181.341C156.267 181.08 156.951 181.052 157.342 181.278L162.218 184.093C162.609 184.319 162.56 184.714 162.108 184.975L157.277 187.764C156.825 188.025 156.141 188.053 155.75 187.827Z" fill="white"/>
<path d="M163.279 192.178L158.403 189.363C158.011 189.137 158.061 188.742 158.513 188.481L163.344 185.692C163.796 185.431 164.48 185.403 164.871 185.629L169.747 188.444C170.138 188.67 170.089 189.065 169.637 189.326L164.805 192.115C164.355 192.375 163.671 192.404 163.279 192.178Z" fill="white"/>
<path d="M170.81 196.522L165.934 193.707C165.543 193.481 165.592 193.086 166.044 192.825L170.876 190.036C171.328 189.775 172.012 189.747 172.403 189.973L177.279 192.788C177.671 193.014 177.621 193.409 177.169 193.67L172.337 196.459C171.886 196.72 171.202 196.748 170.81 196.522Z" fill="white"/>
<path d="M178.341 200.874L173.465 198.059C173.074 197.833 173.123 197.438 173.575 197.177L178.407 194.388C178.859 194.127 179.543 194.099 179.934 194.325L184.81 197.14C185.202 197.366 185.152 197.761 184.7 198.022L179.869 200.811C179.416 201.072 178.732 201.1 178.341 200.874Z" fill="white"/>
<path d="M185.871 205.217L180.995 202.402C180.603 202.176 180.653 201.781 181.105 201.52L185.936 198.731C186.388 198.47 187.072 198.442 187.463 198.668L192.339 201.483C192.73 201.709 192.681 202.104 192.229 202.365L187.397 205.155C186.946 205.415 186.262 205.443 185.871 205.217Z" fill="white"/>
<path d="M129.193 164.03L124.317 161.215C123.925 160.989 123.975 160.594 124.427 160.333L129.258 157.544C129.71 157.283 130.394 157.255 130.786 157.481L135.662 160.296C136.053 160.522 136.004 160.917 135.552 161.178L130.721 163.967C130.268 164.227 129.584 164.256 129.193 164.03Z" fill="white"/>
<path d="M121.55 159.617L116.674 156.802C116.283 156.576 116.332 156.181 116.784 155.92L121.615 153.13C122.067 152.869 122.751 152.841 123.143 153.067L128.019 155.882C128.411 156.108 128.361 156.503 127.909 156.764L123.078 159.553C122.626 159.815 121.942 159.843 121.55 159.617Z" fill="white"/>
<path d="M113.895 155.2L103.393 149.137C103.002 148.911 103.051 148.516 103.503 148.255L108.334 145.466C108.786 145.205 109.47 145.177 109.861 145.403L120.363 151.466C120.755 151.692 120.705 152.087 120.253 152.348L115.422 155.137C114.971 155.398 114.287 155.426 113.895 155.2Z" fill="white"/>
<path d="M119.246 149.824L110.723 144.903C110.331 144.677 110.381 144.282 110.833 144.021L115.664 141.231C116.116 140.97 116.8 140.942 117.191 141.168L125.714 146.089C126.105 146.315 126.056 146.71 125.604 146.971L120.773 149.76C120.321 150.022 119.637 150.051 119.246 149.824Z" fill="white"/>
<path d="M136.724 168.382L131.848 165.567C131.456 165.341 131.506 164.946 131.958 164.685L136.789 161.895C137.241 161.634 137.925 161.606 138.316 161.832L143.192 164.647C143.583 164.873 143.534 165.268 143.082 165.529L138.251 168.318C137.8 168.58 137.116 168.608 136.724 168.382Z" fill="white"/>
<path d="M144.253 172.726L139.377 169.911C138.986 169.685 139.035 169.29 139.487 169.029L144.318 166.239C144.77 165.978 145.454 165.95 145.845 166.176L150.721 168.991C151.113 169.217 151.063 169.612 150.611 169.873L145.779 172.662C145.329 172.924 144.645 172.952 144.253 172.726Z" fill="white"/>
<path d="M151.785 177.077L146.909 174.262C146.517 174.036 146.567 173.641 147.019 173.38L151.851 170.591C152.303 170.33 152.987 170.302 153.378 170.528L158.254 173.343C158.646 173.569 158.596 173.964 158.144 174.225L153.312 177.014C152.86 177.275 152.176 177.303 151.785 177.077Z" fill="white"/>
<path d="M159.314 181.42L154.438 178.605C154.046 178.379 154.096 177.984 154.548 177.723L159.38 174.934C159.832 174.673 160.516 174.645 160.907 174.871L165.783 177.686C166.174 177.912 166.125 178.307 165.673 178.568L160.842 181.357C160.389 181.618 159.705 181.646 159.314 181.42Z" fill="white"/>
<path d="M166.845 185.772L161.969 182.957C161.578 182.731 161.627 182.336 162.079 182.075L166.91 179.286C167.362 179.025 168.046 178.997 168.437 179.223L173.313 182.038C173.704 182.264 173.655 182.659 173.203 182.92L168.371 185.709C167.921 185.969 167.237 185.998 166.845 185.772Z" fill="white"/>
<path d="M174.375 190.116L169.499 187.301C169.107 187.075 169.157 186.68 169.609 186.419L174.441 183.63C174.893 183.369 175.577 183.341 175.968 183.567L180.844 186.382C181.236 186.608 181.186 187.003 180.734 187.264L175.902 190.053C175.451 190.314 174.767 190.342 174.375 190.116Z" fill="white"/>
<path d="M181.906 194.467L177.03 191.652C176.638 191.426 176.688 191.031 177.14 190.77L181.972 187.981C182.424 187.72 183.108 187.692 183.499 187.918L188.375 190.733C188.767 190.959 188.717 191.354 188.265 191.615L183.434 194.404C182.981 194.664 182.297 194.693 181.906 194.467Z" fill="white"/>
<path d="M189.435 198.811L184.559 195.996C184.167 195.77 184.217 195.375 184.669 195.114L189.501 192.325C189.953 192.064 190.637 192.036 191.028 192.262L195.904 195.077C196.296 195.303 196.246 195.698 195.794 195.959L190.963 198.748C190.511 199.009 189.827 199.038 189.435 198.811Z" fill="white"/>
<path d="M196.966 203.163L192.09 200.348C191.699 200.122 191.748 199.727 192.2 199.466L197.031 196.677C197.483 196.416 198.167 196.388 198.559 196.614L203.435 199.429C203.826 199.655 203.777 200.05 203.325 200.311L198.494 203.1C198.042 203.361 197.358 203.389 196.966 203.163Z" fill="white"/>
<path d="M210.352 210.89L199.713 204.747C199.322 204.521 199.371 204.126 199.823 203.865L204.655 201.075C205.107 200.814 205.791 200.786 206.182 201.012L216.821 207.155C217.213 207.381 217.163 207.776 216.711 208.037L211.88 210.826C211.428 211.088 210.744 211.116 210.352 210.89Z" fill="white"/>
<path d="M225.014 202.423L216.034 197.238C215.642 197.012 215.692 196.617 216.144 196.356L220.976 193.567C221.428 193.306 222.112 193.278 222.503 193.504L231.483 198.689C231.874 198.915 231.825 199.31 231.373 199.571L226.541 202.36C226.089 202.621 225.405 202.649 225.014 202.423Z" fill="white"/>
<path d="M149.91 167.53L145.034 164.715C144.642 164.489 144.692 164.094 145.144 163.833L149.975 161.044C150.427 160.783 151.111 160.755 151.503 160.981L156.379 163.796C156.771 164.022 156.721 164.417 156.269 164.678L151.438 167.467C150.986 167.727 150.302 167.756 149.91 167.53Z" fill="white"/>
<path d="M142.193 163.077L137.317 160.262C136.925 160.036 136.975 159.641 137.427 159.38L142.259 156.591C142.711 156.33 143.395 156.302 143.786 156.528L148.662 159.343C149.054 159.569 149.004 159.964 148.552 160.225L143.72 163.014C143.268 163.274 142.584 163.303 142.193 163.077Z" fill="white"/>
<path d="M134.476 158.616L129.6 155.801C129.208 155.575 129.258 155.18 129.71 154.919L134.542 152.13C134.994 151.869 135.678 151.841 136.069 152.067L140.945 154.882C141.337 155.108 141.287 155.503 140.835 155.764L136.004 158.553C135.551 158.814 134.868 158.842 134.476 158.616Z" fill="white"/>
<path d="M126.759 154.163L121.883 151.348C121.492 151.122 121.541 150.727 121.993 150.466L126.824 147.677C127.276 147.416 127.96 147.388 128.351 147.614L133.227 150.429C133.618 150.655 133.569 151.05 133.117 151.311L128.285 154.1C127.834 154.361 127.15 154.389 126.759 154.163Z" fill="white"/>
<path d="M157.441 171.875L152.565 169.06C152.173 168.834 152.223 168.439 152.675 168.178L157.507 165.388C157.959 165.127 158.643 165.099 159.034 165.325L163.91 168.14C164.302 168.366 164.252 168.761 163.8 169.022L158.968 171.812C158.516 172.073 157.832 172.101 157.441 171.875Z" fill="white"/>
<path d="M164.972 176.225L160.096 173.41C159.704 173.184 159.754 172.789 160.206 172.528L165.037 169.739C165.489 169.478 166.173 169.45 166.564 169.676L171.44 172.491C171.832 172.717 171.782 173.112 171.33 173.373L166.498 176.163C166.047 176.423 165.363 176.451 164.972 176.225Z" fill="white"/>
<path d="M172.502 180.57L167.626 177.755C167.234 177.529 167.284 177.134 167.736 176.873L172.567 174.083C173.019 173.822 173.703 173.794 174.095 174.02L178.971 176.835C179.362 177.061 179.313 177.456 178.861 177.717L174.03 180.506C173.577 180.768 172.894 180.796 172.502 180.57Z" fill="white"/>
<path d="M180.031 184.921L175.155 182.106C174.763 181.88 174.813 181.485 175.265 181.224L180.096 178.434C180.548 178.173 181.232 178.145 181.623 178.371L186.499 181.186C186.891 181.412 186.841 181.807 186.389 182.068L181.558 184.858C181.107 185.119 180.423 185.147 180.031 184.921Z" fill="white"/>
<path d="M187.562 189.272L182.686 186.457C182.294 186.231 182.344 185.836 182.796 185.575L187.627 182.786C188.079 182.525 188.763 182.497 189.154 182.723L194.03 185.538C194.422 185.764 194.372 186.159 193.92 186.42L189.088 189.21C188.637 189.469 187.953 189.498 187.562 189.272Z" fill="white"/>
<path d="M195.093 193.617L190.217 190.802C189.825 190.576 189.875 190.181 190.327 189.92L195.159 187.13C195.611 186.869 196.295 186.841 196.686 187.067L201.562 189.882C201.954 190.108 201.904 190.503 201.452 190.764L196.62 193.553C196.168 193.815 195.484 193.843 195.093 193.617Z" fill="white"/>
<path d="M202.622 197.96L197.746 195.145C197.355 194.919 197.404 194.524 197.856 194.263L202.688 191.474C203.14 191.213 203.824 191.185 204.215 191.411L209.091 194.226C209.482 194.452 209.433 194.847 208.981 195.108L204.15 197.897C203.698 198.158 203.014 198.186 202.622 197.96Z" fill="white"/>
<path d="M210.154 202.311L205.278 199.496C204.887 199.27 204.936 198.875 205.388 198.614L210.22 195.825C210.672 195.564 211.356 195.536 211.747 195.762L216.623 198.577C217.014 198.803 216.965 199.198 216.513 199.459L211.681 202.248C211.229 202.509 210.545 202.537 210.154 202.311Z" fill="white"/>
<path d="M217.683 206.655L212.807 203.84C212.415 203.614 212.465 203.219 212.917 202.958L217.748 200.169C218.2 199.908 218.884 199.88 219.275 200.106L224.151 202.921C224.543 203.147 224.494 203.542 224.041 203.803L219.209 206.593C218.758 206.853 218.074 206.881 217.683 206.655Z" fill="white"/>
<path d="M145.945 156.78L141.069 153.965C140.677 153.739 140.727 153.344 141.179 153.083L146.01 150.294C146.462 150.033 147.146 150.005 147.538 150.231L152.414 153.046C152.806 153.272 152.756 153.667 152.304 153.928L147.473 156.717C147.02 156.978 146.337 157.006 145.945 156.78Z" fill="white"/>
<path d="M138.452 152.453L133.576 149.638C133.185 149.412 133.234 149.017 133.686 148.756L138.517 145.966C138.969 145.705 139.653 145.677 140.045 145.903L144.921 148.718C145.313 148.944 145.263 149.339 144.811 149.6L139.98 152.389C139.528 152.651 138.844 152.679 138.452 152.453Z" fill="white"/>
<path d="M130.96 148.125L126.084 145.31C125.693 145.084 125.742 144.689 126.194 144.428L131.025 141.638C131.477 141.377 132.161 141.349 132.552 141.575L137.428 144.39C137.819 144.616 137.77 145.011 137.318 145.272L132.487 148.062C132.035 148.323 131.351 148.351 130.96 148.125Z" fill="white"/>
<path d="M123.468 143.795L118.592 140.98C118.201 140.754 118.25 140.359 118.702 140.098L123.533 137.309C123.985 137.048 124.669 137.02 125.06 137.246L129.936 140.061C130.328 140.287 130.279 140.682 129.826 140.943L124.995 143.732C124.543 143.993 123.859 144.021 123.468 143.795Z" fill="white"/>
<path d="M131.174 139.35L126.298 136.535C125.906 136.309 125.956 135.914 126.408 135.653L128.005 134.731C128.457 134.47 129.141 134.442 129.532 134.668L134.408 137.483C134.8 137.709 134.75 138.104 134.298 138.365L132.701 139.287C132.249 139.547 131.565 139.576 131.174 139.35Z" fill="white"/>
<path d="M140.95 144.999L136.074 142.184C135.683 141.958 135.732 141.563 136.184 141.302L137.781 140.38C138.233 140.119 138.917 140.091 139.308 140.317L144.184 143.132C144.576 143.358 144.526 143.753 144.074 144.014L142.477 144.936C142.025 145.197 141.341 145.225 140.95 144.999Z" fill="white"/>
<path d="M148.412 149.303L143.536 146.488C143.144 146.262 143.194 145.867 143.646 145.606L145.243 144.684C145.695 144.423 146.379 144.395 146.771 144.621L151.647 147.436C152.038 147.662 151.989 148.057 151.537 148.318L149.94 149.24C149.488 149.501 148.804 149.529 148.412 149.303Z" fill="white"/>
<path d="M155.874 153.608L150.998 150.793C150.607 150.567 150.656 150.172 151.108 149.911L152.705 148.989C153.157 148.728 153.841 148.7 154.232 148.926L159.108 151.741C159.5 151.967 159.45 152.362 158.998 152.623L157.401 153.545C156.949 153.806 156.265 153.834 155.874 153.608Z" fill="white"/>
<path d="M163.335 157.921L158.459 155.106C158.068 154.88 158.117 154.485 158.569 154.224L160.166 153.302C160.618 153.041 161.302 153.013 161.693 153.239L166.569 156.054C166.961 156.28 166.911 156.675 166.459 156.936L164.862 157.858C164.411 158.119 163.727 158.147 163.335 157.921Z" fill="white"/>
<path d="M204.992 181.968L200.116 179.153C199.725 178.927 199.773 178.532 200.225 178.271L201.823 177.349C202.275 177.088 202.959 177.06 203.35 177.286L208.225 180.101C208.617 180.327 208.568 180.722 208.116 180.983L206.518 181.905C206.067 182.165 205.384 182.194 204.992 181.968Z" fill="white"/>
<path d="M212.453 186.28L207.577 183.465C207.185 183.239 207.235 182.844 207.687 182.583L209.284 181.661C209.736 181.4 210.42 181.372 210.812 181.598L215.688 184.413C216.08 184.639 216.03 185.034 215.578 185.295L213.981 186.217C213.528 186.478 212.844 186.507 212.453 186.28Z" fill="white"/>
<path d="M219.916 190.585L215.04 187.77C214.648 187.544 214.698 187.149 215.15 186.888L216.747 185.966C217.199 185.705 217.883 185.677 218.274 185.903L223.15 188.718C223.541 188.944 223.492 189.339 223.04 189.6L221.443 190.522C220.991 190.783 220.307 190.812 219.916 190.585Z" fill="white"/>
<path d="M227.377 194.897L222.501 192.082C222.109 191.856 222.159 191.461 222.611 191.2L224.208 190.278C224.66 190.017 225.344 189.989 225.735 190.215L230.611 193.03C231.003 193.256 230.953 193.651 230.501 193.912L228.904 194.834C228.452 195.095 227.769 195.123 227.377 194.897Z" fill="white"/>
<path d="M153.476 161.124L148.6 158.309C148.209 158.083 148.258 157.688 148.71 157.427L153.541 154.638C153.993 154.377 154.677 154.349 155.068 154.575L159.944 157.39C160.335 157.616 160.286 158.011 159.834 158.272L155.003 161.061C154.552 161.321 153.868 161.35 153.476 161.124Z" fill="white"/>
<path d="M161.008 165.475L156.132 162.66C155.74 162.434 155.79 162.039 156.242 161.778L161.073 158.989C161.525 158.728 162.209 158.7 162.6 158.926L167.476 161.741C167.868 161.967 167.818 162.362 167.366 162.623L162.535 165.412C162.083 165.673 161.399 165.701 161.008 165.475Z" fill="white"/>
<path d="M168.537 169.819L163.661 167.004C163.269 166.778 163.319 166.383 163.771 166.122L168.602 163.333C169.054 163.072 169.738 163.044 170.129 163.27L175.005 166.085C175.397 166.311 175.347 166.706 174.895 166.967L170.063 169.757C169.612 170.017 168.929 170.045 168.537 169.819Z" fill="white"/>
<path d="M176.066 174.17L171.19 171.355C170.798 171.129 170.848 170.734 171.3 170.473L176.132 167.684C176.584 167.423 177.268 167.395 177.659 167.621L182.535 170.436C182.927 170.662 182.877 171.057 182.425 171.318L177.594 174.107C177.142 174.367 176.458 174.396 176.066 174.17Z" fill="white"/>
<path d="M183.597 178.514L178.721 175.699C178.33 175.473 178.379 175.078 178.831 174.817L183.663 172.028C184.115 171.767 184.799 171.739 185.19 171.965L190.066 174.78C190.457 175.006 190.408 175.401 189.956 175.662L185.125 178.452C184.672 178.712 183.988 178.74 183.597 178.514Z" fill="white"/>
<path d="M191.129 182.866L186.253 180.051C185.861 179.825 185.911 179.43 186.363 179.169L191.195 176.38C191.647 176.119 192.331 176.091 192.722 176.317L197.598 179.132C197.989 179.358 197.94 179.753 197.488 180.014L192.656 182.804C192.204 183.063 191.52 183.092 191.129 182.866Z" fill="white"/>
<path d="M198.658 187.21L193.782 184.395C193.39 184.169 193.44 183.774 193.892 183.513L198.724 180.724C199.176 180.463 199.86 180.435 200.251 180.661L205.127 183.476C205.519 183.702 205.469 184.097 205.017 184.358L200.185 187.147C199.733 187.408 199.05 187.436 198.658 187.21Z" fill="white"/>
<path d="M206.187 191.561L201.311 188.746C200.919 188.52 200.969 188.125 201.421 187.864L206.252 185.075C206.704 184.814 207.388 184.786 207.779 185.012L212.655 187.827C213.047 188.053 212.997 188.448 212.545 188.709L207.714 191.499C207.263 191.759 206.579 191.787 206.187 191.561Z" fill="white"/>
<path d="M213.718 195.905L208.842 193.09C208.451 192.864 208.5 192.469 208.952 192.208L213.784 189.419C214.236 189.158 214.92 189.13 215.311 189.356L220.187 192.171C220.579 192.397 220.529 192.792 220.077 193.053L215.246 195.842C214.793 196.103 214.109 196.132 213.718 195.905Z" fill="white"/>
<path d="M110.426 161.662L96.0647 153.371C95.6737 153.145 95.7227 152.75 96.1747 152.489L101.006 149.7C101.458 149.439 102.142 149.411 102.534 149.637L116.895 157.928C117.286 158.154 117.237 158.549 116.785 158.81L111.953 161.599C111.501 161.86 110.817 161.889 110.426 161.662Z" fill="white"/>
<path d="M202.935 215.076L188.574 206.785C188.183 206.559 188.232 206.164 188.684 205.903L193.516 203.114C193.968 202.853 194.652 202.825 195.043 203.051L209.404 211.342C209.796 211.568 209.746 211.963 209.294 212.224L204.462 215.013C204.01 215.273 203.326 215.302 202.935 215.076Z" fill="white"/>
<path d="M172.82 207.29L167.944 204.475C167.552 204.249 167.602 203.854 168.054 203.593L173.81 200.27C174.262 200.009 174.946 199.981 175.337 200.207L180.213 203.022C180.604 203.248 180.555 203.643 180.103 203.904L174.347 207.227C173.896 207.488 173.212 207.517 172.82 207.29Z" fill="white"/>
<path d="M118.136 175.72L110.338 171.218C109.947 170.992 109.996 170.597 110.448 170.336L116.204 167.013C116.656 166.752 117.34 166.724 117.731 166.95L125.529 171.452C125.921 171.678 125.871 172.073 125.419 172.334L119.663 175.657C119.212 175.918 118.528 175.946 118.136 175.72Z" fill="white"/>
<path d="M165.566 203.102L157.768 198.6C157.376 198.374 157.426 197.979 157.878 197.718L163.634 194.395C164.086 194.134 164.77 194.106 165.161 194.332L172.959 198.834C173.35 199.06 173.301 199.455 172.849 199.716L167.094 203.039C166.641 203.299 165.957 203.328 165.566 203.102Z" fill="white"/>
<path d="M129.001 181.993L121.203 177.491C120.812 177.265 120.861 176.87 121.313 176.609L127.069 173.286C127.521 173.025 128.205 172.997 128.596 173.223L136.394 177.725C136.786 177.951 136.736 178.346 136.284 178.607L130.528 181.93C130.076 182.19 129.392 182.219 129.001 181.993Z" fill="white"/>
<path d="M128.647 173.25L162.552 192.825C162.973 193.068 162.973 193.462 162.552 193.705L156.683 197.093C156.262 197.336 155.58 197.336 155.159 197.093L121.254 177.518L128.647 173.25Z" fill="white"/>
<path d="M193.866 215.172L199.298 218.308C199.619 218.493 199.579 218.817 199.208 219.031L196.853 220.39C196.483 220.604 195.922 220.627 195.601 220.442L190.17 217.306C189.849 217.121 189.889 216.797 190.26 216.583L192.614 215.224C192.985 215.01 193.545 214.987 193.866 215.172Z" fill="white"/>
<path d="M186.273 210.789L191.705 213.925C192.026 214.11 191.986 214.434 191.615 214.648L189.261 216.007C188.89 216.221 188.33 216.244 188.009 216.059L182.578 212.923C182.257 212.738 182.297 212.414 182.668 212.2L185.022 210.841C185.392 210.628 185.952 210.604 186.273 210.789Z" fill="white"/>
<path d="M178.743 206.437L184.175 209.573C184.496 209.758 184.456 210.082 184.085 210.296L181.731 211.655C181.36 211.869 180.8 211.892 180.479 211.707L175.047 208.571C174.726 208.386 174.766 208.062 175.137 207.848L177.491 206.489C177.862 206.275 178.422 206.252 178.743 206.437Z" fill="white"/>
<path d="M190.432 208.391L195.863 211.527C196.184 211.712 196.144 212.036 195.773 212.25L193.418 213.609C193.048 213.823 192.487 213.846 192.166 213.661L186.734 210.525C186.413 210.34 186.453 210.016 186.824 209.802L189.179 208.443C189.55 208.229 190.111 208.205 190.432 208.391Z" fill="white"/>
</g>
<path d="M270.127 199.593L126.265 116.534C124.003 115.228 122.822 112.045 123.628 109.426L156.162 3.79532C156.968 1.17632 159.455 0.111318 161.717 1.41732L305.579 84.4763C307.841 85.7823 309.022 88.9643 308.216 91.5843L275.682 197.215C274.877 199.835 272.39 200.899 270.127 199.593Z" fill="url(#paint4_radial_2263_2213)"/>
<path d="M268.771 195.896L129.233 115.267C127.068 114.017 125.938 110.972 126.709 108.465L157.813 7.48195C158.584 4.97495 160.964 3.95596 163.129 5.20596L302.667 85.8349C304.832 87.0849 305.962 90.1299 305.191 92.6369L274.087 193.62C273.316 196.127 270.936 197.146 268.771 195.896Z" fill="url(#paint5_linear_2263_2213)"/>
<path opacity="0.4" d="M268.771 195.896L129.233 115.267C127.068 114.017 125.938 110.972 126.709 108.465L157.813 7.48195C158.584 4.97495 160.964 3.95596 163.129 5.20596L302.667 85.8349C304.832 87.0849 305.962 90.1299 305.191 92.6369L274.087 193.62C273.316 196.127 270.936 197.146 268.771 195.896Z" fill="white"/>
<path opacity="0.4" d="M268.771 195.896L129.233 115.267C127.068 114.017 125.938 110.972 126.709 108.465L157.813 7.48195C158.584 4.97495 160.964 3.95596 163.129 5.20596L302.667 85.8349C304.832 87.0849 305.962 90.1299 305.191 92.6369L274.087 193.62C273.316 196.127 270.936 197.146 268.771 195.896Z" fill="white"/>
<path opacity="0.5" d="M261.274 165.036L166.814 110.5C165.329 109.642 164.553 107.553 165.082 105.833L186.444 36.4749C186.973 34.7549 188.606 34.0559 190.092 34.9129L284.552 89.4489C286.037 90.3069 286.813 92.3959 286.284 94.1159L264.922 163.474C264.393 165.194 262.76 165.893 261.274 165.036Z" fill="white"/>
<path d="M248.51 166.708L154.051 112.172C152.566 111.314 151.79 109.225 152.319 107.505L173.681 38.1468C174.21 36.4268 175.842 35.7278 177.327 36.5848L271.788 91.1218C273.273 91.9798 274.047 94.0688 273.518 95.7888L252.156 165.147C251.629 166.867 249.996 167.566 248.51 166.708Z" fill="url(#paint6_radial_2263_2213)"/>
<g opacity="0.5">
<path d="M248.51 166.708L154.051 112.172C152.566 111.314 151.79 109.225 152.319 107.505L173.681 38.1468C174.21 36.4268 175.842 35.7278 177.327 36.5848L271.788 91.1218C273.273 91.9798 274.047 94.0688 273.518 95.7888L252.156 165.147C251.629 166.867 249.996 167.566 248.51 166.708Z" fill="white"/>
</g>
<path d="M271.79 91.1218L177.33 36.5848C176.399 36.0478 175.411 36.1218 174.672 36.6748C175.117 36.6618 175.582 36.7628 176.036 37.0238L270.496 91.5598C271.981 92.4168 272.756 94.5068 272.227 96.2268L250.865 165.585C250.667 166.227 250.315 166.726 249.875 167.056C250.888 167.026 251.791 166.34 252.159 165.145L273.521 95.7868C274.051 94.0688 273.275 91.9788 271.79 91.1218Z" fill="white"/>
<path opacity="0.4" d="M129.376 223.346C128.074 223.346 126.828 223.075 125.876 222.526V222.527L88.0296 200.677C87.0266 200.097 86.4746 199.27 86.4746 198.345C86.4736 197.273 87.2356 196.218 88.5616 195.452L108.042 184.204C110.423 182.831 113.916 182.696 115.999 183.897L153.844 205.747C154.847 206.326 155.399 207.154 155.4 208.079C155.4 209.151 154.639 210.206 153.313 210.971L133.831 222.219C132.541 222.965 130.92 223.346 129.376 223.346ZM112.518 184.184C111.15 184.184 109.697 184.513 108.59 185.152L89.1096 196.399C88.1296 196.964 87.5676 197.674 87.5676 198.345C87.5676 199.008 88.1166 199.464 88.5776 199.73L126.424 221.58C128.141 222.569 131.282 222.431 133.286 221.272L152.767 210.025C153.746 209.46 154.308 208.75 154.308 208.079C154.308 207.416 153.759 206.96 153.298 206.694L115.453 184.844C114.685 184.4 113.629 184.184 112.518 184.184Z" fill="white"/>
<path d="M200.337 72.9677L194.497 69.5957C193.955 69.2827 193.665 68.5307 193.848 67.9167C194.031 67.3017 194.619 67.0577 195.161 67.3707L201.001 70.7427C201.543 71.0557 201.833 71.8077 201.65 72.4217C201.466 73.0357 200.878 73.2797 200.337 72.9677Z" fill="white"/>
<path d="M214.246 80.9974L205.635 76.0254C205.093 75.7124 204.803 74.9604 204.986 74.3464C205.169 73.7314 205.757 73.4874 206.299 73.8004L214.91 78.7714C215.452 79.0844 215.742 79.8364 215.559 80.4504C215.376 81.0654 214.788 81.3104 214.246 80.9974Z" fill="white"/>
<path d="M188.559 98.9681L182.719 95.5961C182.177 95.2831 181.887 94.5311 182.07 93.9171C182.253 93.3021 182.841 93.0581 183.383 93.3701L189.223 96.7421C189.765 97.0551 190.055 97.8071 189.872 98.4211C189.689 99.0361 189.101 99.2811 188.559 98.9681Z" fill="white"/>
<path d="M200.959 106.129L192.348 101.158C191.806 100.845 191.516 100.093 191.699 99.4792C191.882 98.8642 192.47 98.6202 193.012 98.9332L201.623 103.905C202.165 104.218 202.455 104.97 202.272 105.584C202.089 106.197 201.501 106.441 200.959 106.129Z" fill="white"/>
<path d="M182.844 68.3346L179.196 66.2286C178.654 65.9156 178.364 65.1636 178.547 64.5496C178.73 63.9346 179.318 63.6905 179.86 64.0035L183.508 66.1096C184.05 66.4226 184.34 67.1746 184.157 67.7886C183.974 68.4026 183.386 68.6476 182.844 68.3346Z" fill="white"/>
<path d="M193.821 80.1401L182.675 73.7051C182.133 73.3921 181.843 72.6401 182.026 72.0261C182.209 71.4111 182.797 71.1671 183.339 71.4801L194.485 77.9151C195.027 78.2281 195.317 78.9801 195.134 79.5941C194.951 80.2091 194.363 80.4531 193.821 80.1401Z" fill="white"/>
<path d="M183.539 85.1392L179.891 83.0332C179.349 82.7202 179.059 81.9682 179.242 81.3542C179.425 80.7392 180.013 80.4952 180.555 80.8082L184.203 82.9142C184.745 83.2272 185.035 83.9792 184.852 84.5932C184.668 85.2072 184.08 85.4522 183.539 85.1392Z" fill="white"/>
<path d="M202.303 117.839L192.559 112.213C192.017 111.9 191.727 111.148 191.91 110.534C192.093 109.919 192.681 109.675 193.223 109.988L202.967 115.614C203.509 115.927 203.799 116.679 203.616 117.293C203.432 117.907 202.845 118.152 202.303 117.839Z" fill="white"/>
<path d="M179.452 93.7134L177.11 92.3614C176.568 92.0484 176.278 91.2964 176.461 90.6824C176.644 90.0674 177.232 89.8234 177.774 90.1364L180.116 91.4884C180.658 91.8014 180.948 92.5534 180.765 93.1674C180.581 93.7814 179.994 94.0254 179.452 93.7134Z" fill="white"/>
<path d="M177.235 103.361L174.327 101.682C173.785 101.369 173.495 100.617 173.678 100.003C173.861 99.3877 174.449 99.1437 174.991 99.4567L177.899 101.136C178.441 101.449 178.731 102.201 178.548 102.815C178.365 103.429 177.777 103.674 177.235 103.361Z" fill="white"/>
<path d="M188.549 109.897L180.882 105.471C180.34 105.158 180.05 104.406 180.233 103.792C180.416 103.177 181.004 102.933 181.546 103.246L189.213 107.672C189.755 107.985 190.045 108.737 189.862 109.351C189.679 109.965 189.091 110.21 188.549 109.897Z" fill="white"/>
<path d="M178.448 109.529L172.936 106.346C172.394 106.033 172.104 105.281 172.287 104.667C172.47 104.052 173.058 103.808 173.6 104.121L179.113 107.304C179.655 107.617 179.945 108.369 179.762 108.983C179.578 109.597 178.99 109.842 178.448 109.529Z" fill="white"/>
<path d="M210.664 122.687L207.124 120.643C206.582 120.33 206.292 119.578 206.475 118.964C206.658 118.349 207.246 118.105 207.788 118.418L211.328 120.462C211.87 120.775 212.16 121.527 211.977 122.141C211.794 122.755 211.206 122.999 210.664 122.687Z" fill="white"/>
<path d="M197.11 92.9717L187.366 87.3457C186.824 87.0327 186.534 86.2807 186.717 85.6667C186.9 85.0517 187.488 84.8077 188.03 85.1207L197.774 90.7467C198.316 91.0597 198.606 91.8117 198.423 92.4257C198.24 93.0397 197.652 93.2847 197.11 92.9717Z" fill="white"/>
<path d="M198.266 88.1742L181.284 78.3692C180.742 78.0562 180.452 77.3042 180.635 76.6902C180.818 76.0752 181.406 75.8312 181.948 76.1442L198.93 85.9492C199.472 86.2622 199.762 87.0142 199.579 87.6282C199.396 88.2422 198.808 88.4872 198.266 88.1742Z" fill="#9A9A9A"/>
<path d="M188.245 93.3233L178.501 87.6973C177.959 87.3843 177.669 86.6323 177.852 86.0183C178.035 85.4033 178.623 85.1593 179.165 85.4723L188.909 91.0983C189.451 91.4113 189.741 92.1633 189.558 92.7773C189.375 93.3913 188.787 93.6363 188.245 93.3233Z" fill="#9A9A9A"/>
<path d="M204.5 97.2413L200.96 95.1973C200.418 94.8843 200.128 94.1323 200.311 93.5183C200.494 92.9033 201.082 92.6593 201.624 92.9723L205.164 95.0163C205.706 95.3293 205.996 96.0813 205.813 96.6953C205.63 97.3093 205.042 97.5543 204.5 97.2413Z" fill="#9A9A9A"/>
<path d="M240.511 96.1607L219.546 84.0567C219.004 83.7437 218.714 82.9917 218.897 82.3777C219.08 81.7627 219.668 81.5187 220.21 81.8317L241.175 93.9357C241.717 94.2487 242.007 95.0007 241.824 95.6147C241.641 96.2287 241.053 96.4727 240.511 96.1607Z" fill="#9A9A9A"/>
<path d="M187.432 103.78L175.719 97.018C175.177 96.705 174.887 95.953 175.07 95.339C175.253 94.724 175.841 94.48 176.383 94.792L188.096 101.554C188.638 101.867 188.928 102.619 188.745 103.233C188.562 103.848 187.974 104.093 187.432 103.78Z" fill="black"/>
<path d="M189.198 66.5365L180.587 61.5645C180.045 61.2515 179.755 60.4995 179.938 59.8855C180.121 59.2705 180.709 59.0265 181.251 59.3395L189.862 64.3115C190.404 64.6245 190.694 65.3765 190.511 65.9905C190.328 66.6045 189.74 66.8495 189.198 66.5365Z" fill="black"/>
<path d="M176.648 113.956L166.675 108.198C166.133 107.885 165.843 107.133 166.026 106.519C166.209 105.904 166.797 105.66 167.339 105.972L177.312 111.73C177.854 112.043 178.144 112.795 177.961 113.409C177.778 114.024 177.19 114.269 176.648 113.956Z" fill="#9A9A9A"/>
<path d="M242.865 85.386L238.597 82.921C238.201 82.692 237.988 82.143 238.123 81.694C238.257 81.245 238.687 81.066 239.083 81.295L243.351 83.759C243.747 83.988 243.959 84.537 243.825 84.987C243.69 85.435 243.261 85.614 242.865 85.386Z" fill="white"/>
<path d="M251.006 90.0891L246.737 87.6241C246.341 87.3951 246.129 86.8461 246.263 86.3971C246.397 85.9481 246.827 85.7691 247.223 85.9981L251.491 88.4621C251.887 88.6911 252.099 89.2401 251.965 89.6891C251.832 90.1381 251.402 90.3171 251.006 90.0891Z" fill="white"/>
<path d="M259.149 94.7834L254.881 92.3194C254.485 92.0904 254.273 91.5414 254.407 91.0924C254.541 90.6434 254.971 90.4644 255.367 90.6934L259.635 93.1574C260.031 93.3864 260.244 93.9354 260.11 94.3844C259.975 94.8334 259.545 95.0124 259.149 94.7834Z" fill="white"/>
<path d="M263.15 97.0996L263.022 97.0226C262.626 96.7936 262.414 96.2446 262.548 95.7956C262.682 95.3466 263.112 95.1676 263.508 95.3966L263.636 95.4736C264.032 95.7026 264.244 96.2516 264.11 96.7006C263.976 97.1496 263.546 97.3286 263.15 97.0996Z" fill="black"/>
<defs>
<linearGradient id="paint0_linear_2263_2213" x1="0.0004" y1="211.796" x2="292.359" y2="211.796" gradientUnits="userSpaceOnUse">
<stop stop-color="white"/>
<stop offset="1"/>
</linearGradient>
<radialGradient id="paint1_radial_2263_2213" cx="0" cy="0" r="1" gradientUnits="userSpaceOnUse" gradientTransform="translate(161.487 -4.65664) scale(223.296)">
<stop stop-color="white"/>
<stop offset="0.4742" stop-color="#B3B3B3"/>
<stop offset="0.5947" stop-color="#636363"/>
<stop offset="0.7421" stop-color="#4B4B4B"/>
<stop offset="0.8016"/>
</radialGradient>
<radialGradient id="paint2_radial_2263_2213" cx="0" cy="0" r="1" gradientUnits="userSpaceOnUse" gradientTransform="translate(24.9146 174.665) scale(244.172)">
<stop stop-color="white"/>
<stop offset="0.4742" stop-color="#B0B0B0"/>
<stop offset="0.5679" stop-color="#737373"/>
<stop offset="0.6825" stop-color="#464646"/>
<stop offset="0.7381"/>
</radialGradient>
<radialGradient id="paint3_radial_2263_2213" cx="0" cy="0" r="1" gradientUnits="userSpaceOnUse" gradientTransform="translate(47.3721 125.66) scale(218.96 218.96)">
<stop stop-color="white"/>
<stop offset="0.4742" stop-color="#C4C4C4"/>
<stop offset="0.5875" stop-color="#7D7D7D"/>
<stop offset="0.7262" stop-color="#575757"/>
<stop offset="1"/>
</radialGradient>
<radialGradient id="paint4_radial_2263_2213" cx="0" cy="0" r="1" gradientUnits="userSpaceOnUse" gradientTransform="translate(101.919 41.922) scale(223.341)">
<stop stop-color="white"/>
<stop offset="0.4742" stop-color="#A5A5A5"/>
<stop offset="0.5875" stop-color="#6D6D6D"/>
<stop offset="0.7262" stop-color="#373737"/>
<stop offset="1" stop-color="#040404"/>
</radialGradient>
<linearGradient id="paint5_linear_2263_2213" x1="126.467" y1="100.551" x2="305.433" y2="100.551" gradientUnits="userSpaceOnUse">
<stop stop-color="white"/>
<stop offset="1" stop-color="#767676"/>
</linearGradient>
<radialGradient id="paint6_radial_2263_2213" cx="0" cy="0" r="1" gradientUnits="userSpaceOnUse" gradientTransform="translate(20.3867 -5.77179) scale(347.847 347.848)">
<stop stop-color="#FFFEFD"/>
<stop offset="0.4742" stop-color="#BABABA"/>
<stop offset="0.5875" stop-color="#868586"/>
<stop offset="0.7262" stop-color="#555555"/>
<stop offset="1" stop-color="#0D0D0D"/>
</radialGradient>
</defs>
</svg>
