<svg width="147" height="116" viewBox="0 0 147 116" fill="none" xmlns="http://www.w3.org/2000/svg">
<circle cx="89" cy="58" r="57" stroke="white" stroke-width="2"/>
<path d="M68 44C68 44.9471 67.7581 45.7571 67.4198 46.2984C67.0727 46.8538 66.7212 47 66.5 47C66.2788 47 65.9273 46.8538 65.5802 46.2984C65.2419 45.7571 65 44.9471 65 44C65 43.0529 65.2419 42.2429 65.5802 41.7016C65.9273 41.1462 66.2788 41 66.5 41C66.7212 41 67.0727 41.1462 67.4198 41.7016C67.7581 42.2429 68 43.0529 68 44Z" fill="white" stroke="white" stroke-width="2"/>
<path d="M93 44C93 44.9471 92.7581 45.7571 92.4198 46.2984C92.0727 46.8538 91.7212 47 91.5 47C91.2788 47 90.9273 46.8538 90.5802 46.2984C90.2419 45.7571 90 44.9471 90 44C90 43.0529 90.2419 42.2429 90.5802 41.7016C90.9273 41.1462 91.2788 41 91.5 41C91.7212 41 92.0727 41.1462 92.4198 41.7016C92.7581 42.2429 93 43.0529 93 44Z" fill="white" stroke="white" stroke-width="2"/>
<mask id="path-4-inside-1_2721_2133" fill="white">
<path d="M99.95 65.6148C100.437 65.5935 100.883 65.9291 100.878 66.4163C100.869 67.4951 100.401 68.5656 99.4939 69.5682C98.3524 70.8303 96.5502 71.9467 94.2438 72.8204C91.9374 73.694 89.1966 74.2984 86.2595 74.5812C83.571 74.84 80.7924 74.822 78.1267 74.5305C77.7821 74.4929 77.6 74.1079 77.784 73.8141V73.8141C77.8825 73.6568 78.0636 73.5715 78.248 73.5937C80.7275 73.8914 83.3275 73.921 85.8393 73.6792C88.4533 73.4276 90.8926 72.8896 92.9453 72.1121C94.998 71.3346 96.602 70.341 97.6179 69.2176C98.306 68.4567 98.7102 67.6519 98.8198 66.8361C98.9018 66.2257 99.3348 65.6417 99.95 65.6148V65.6148Z"/>
</mask>
<path d="M99.95 65.6148C100.437 65.5935 100.883 65.9291 100.878 66.4163C100.869 67.4951 100.401 68.5656 99.4939 69.5682C98.3524 70.8303 96.5502 71.9467 94.2438 72.8204C91.9374 73.694 89.1966 74.2984 86.2595 74.5812C83.571 74.84 80.7924 74.822 78.1267 74.5305C77.7821 74.4929 77.6 74.1079 77.784 73.8141V73.8141C77.8825 73.6568 78.0636 73.5715 78.248 73.5937C80.7275 73.8914 83.3275 73.921 85.8393 73.6792C88.4533 73.4276 90.8926 72.8896 92.9453 72.1121C94.998 71.3346 96.602 70.341 97.6179 69.2176C98.306 68.4567 98.7102 67.6519 98.8198 66.8361C98.9018 66.2257 99.3348 65.6417 99.95 65.6148V65.6148Z" fill="white" stroke="white" stroke-width="4" mask="url(#path-4-inside-1_2721_2133)"/>
<path d="M21.7422 84.3824C21.7422 84.3824 27.3832 90.5233 33.4051 89.4417C36.326 88.917 38.1582 87.5965 39.2706 86.3757C40.3416 85.2004 40.231 83.3713 39.0425 82.3147L38.6341 81.9517C37.4793 80.9251 35.7329 81.0327 34.6704 82.1545C34.0807 82.7772 33.2395 83.3138 32.0484 83.4825C28.6853 83.9589 26.1539 79.6172 26.1539 79.6172L21.7422 84.3824Z" fill="white"/>
<path d="M30.0748 78.062C30.2238 76.0147 28.6857 72.5524 28.4923 68.8686C28.3484 66.1284 29.3351 61.17 25.5861 61.074C21.27 60.9634 22.9548 69.0849 22.9548 69.0849C22.9548 69.0849 16.9655 59.9258 12.6954 58.2422C9.63171 57.0343 8.2279 60.652 9.75913 62.3155C11.0549 63.7232 11.6494 63.8655 13.5064 66.0181C15.3634 68.1707 16.3729 69.8991 16.3729 69.8991C16.7565 69.6805 10.4673 63.3319 7.12262 61.8418C4.0482 60.472 1.56465 64.2736 3.66473 65.9799C5.83007 67.7392 11.1165 70.9931 12.4518 73.2105C12.8196 72.9304 6.15499 67.8282 2.49694 68.1053C-0.136823 68.3048 0.11338 72.1437 1.59036 73.1584C2.43443 73.7384 9.67943 76.5445 9.58812 77.0996C9.58812 77.0996 2.57243 74.7048 1.85372 77.4427C1.135 80.1806 3.90531 81.1601 3.90531 81.1601C3.90531 81.1601 8.02086 81.5322 10.3345 83.0982C12.6482 84.6643 15.6118 87.2509 18.8078 87.341C22.0605 87.4326 29.5817 84.8434 30.0748 78.062Z" fill="white"/>
</svg>
