<svg width="116" height="116" viewBox="0 0 116 116" fill="none" xmlns="http://www.w3.org/2000/svg">
<circle cx="58" cy="58" r="57" stroke="white" stroke-width="2"/>
<path d="M37 44C37 44.9471 36.7581 45.7571 36.4198 46.2984C36.0727 46.8538 35.7212 47 35.5 47C35.2788 47 34.9273 46.8538 34.5802 46.2984C34.2419 45.7571 34 44.9471 34 44C34 43.0529 34.2419 42.2429 34.5802 41.7016C34.9273 41.1462 35.2788 41 35.5 41C35.7212 41 36.0727 41.1462 36.4198 41.7016C36.7581 42.2429 37 43.0529 37 44Z" fill="white" stroke="white" stroke-width="2"/>
<path d="M62 44C62 44.9471 61.7581 45.7571 61.4198 46.2984C61.0727 46.8538 60.7212 47 60.5 47C60.2788 47 59.9273 46.8538 59.5802 46.2984C59.2419 45.7571 59 44.9471 59 44C59 43.0529 59.2419 42.2429 59.5802 41.7016C59.9273 41.1462 60.2788 41 60.5 41C60.7212 41 61.0727 41.1462 61.4198 41.7016C61.7581 42.2429 62 43.0529 62 44Z" fill="white" stroke="white" stroke-width="2"/>
<path d="M33 68V68C41.132 75.4575 53.5122 75.7945 62.0379 68.7904L63 68" stroke="white" stroke-width="1.5" stroke-linecap="round"/>
</svg>
