<svg width="116" height="116" viewBox="0 0 116 116" fill="none" xmlns="http://www.w3.org/2000/svg">
<circle cx="58" cy="58" r="57" stroke="white" stroke-width="2"/>
<path d="M37 44C37 44.9471 36.7581 45.7571 36.4198 46.2984C36.0727 46.8538 35.7212 47 35.5 47C35.2788 47 34.9273 46.8538 34.5802 46.2984C34.2419 45.7571 34 44.9471 34 44C34 43.0529 34.2419 42.2429 34.5802 41.7016C34.9273 41.1462 35.2788 41 35.5 41C35.7212 41 36.0727 41.1462 36.4198 41.7016C36.7581 42.2429 37 43.0529 37 44Z" fill="white" stroke="white" stroke-width="2"/>
<path d="M62 44C62 44.9471 61.7581 45.7571 61.4198 46.2984C61.0727 46.8538 60.7212 47 60.5 47C60.2788 47 59.9273 46.8538 59.5802 46.2984C59.2419 45.7571 59 44.9471 59 44C59 43.0529 59.2419 42.2429 59.5802 41.7016C59.9273 41.1462 60.2788 41 60.5 41C60.7212 41 61.0727 41.1462 61.4198 41.7016C61.7581 42.2429 62 43.0529 62 44Z" fill="white" stroke="white" stroke-width="2"/>
<mask id="path-4-inside-1_2717_1794" fill="white">
<path d="M68.9501 65.6148C69.4368 65.5935 69.8829 65.9291 69.8785 66.4163C69.8686 67.4951 69.4006 68.5656 68.4939 69.5682C67.3524 70.8303 65.5502 71.9467 63.2438 72.8204C60.9374 73.694 58.1966 74.2984 55.2595 74.5812C52.571 74.84 49.7924 74.822 47.1267 74.5305C46.7821 74.4929 46.6 74.1079 46.784 73.8141C46.8825 73.6568 47.0636 73.5715 47.248 73.5937C49.7275 73.8914 52.3275 73.921 54.8393 73.6792C57.4533 73.4276 59.8926 72.8896 61.9453 72.1121C63.998 71.3346 65.602 70.341 66.6179 69.2176C67.306 68.4567 67.7102 67.6519 67.8198 66.8361C67.9018 66.2257 68.3348 65.6417 68.9501 65.6148Z"/>
</mask>
<path d="M68.9501 65.6148C69.4368 65.5935 69.8829 65.9291 69.8785 66.4163C69.8686 67.4951 69.4006 68.5656 68.4939 69.5682C67.3524 70.8303 65.5502 71.9467 63.2438 72.8204C60.9374 73.694 58.1966 74.2984 55.2595 74.5812C52.571 74.84 49.7924 74.822 47.1267 74.5305C46.7821 74.4929 46.6 74.1079 46.784 73.8141C46.8825 73.6568 47.0636 73.5715 47.248 73.5937C49.7275 73.8914 52.3275 73.921 54.8393 73.6792C57.4533 73.4276 59.8926 72.8896 61.9453 72.1121C63.998 71.3346 65.602 70.341 66.6179 69.2176C67.306 68.4567 67.7102 67.6519 67.8198 66.8361C67.9018 66.2257 68.3348 65.6417 68.9501 65.6148Z" fill="white" stroke="white" stroke-width="4" mask="url(#path-4-inside-1_2717_1794)"/>
</svg>
